<?xml version="1.0" encoding="utf-8"?>
<!-- Generator: Adobe Illustrator 16.0.0, SVG Export Plug-In . SVG Version: 6.00 Build 0)  -->
<!DOCTYPE svg PUBLIC "-//W3C//DTD SVG 1.1//EN" "http://www.w3.org/Graphics/SVG/1.1/DTD/svg11.dtd">
<svg version="1.1" id="Layer_1" xmlns="http://www.w3.org/2000/svg" xmlns:xlink="http://www.w3.org/1999/xlink" x="0px" y="0px"
	 width="100px" height="95.508px" viewBox="-35 -33.428 100 95.508" enable-background="new -35 -33.428 100 95.508"
	 xml:space="preserve">
<path fill="#DD5B26" d="M22.695,9.629c0-1.784-0.554-3.203-1.647-4.277c-1.1-1.063-2.975-1.595-5.625-1.595h-4.403v11.922h4.374
	c2.841,0,4.789-0.589,5.843-1.763C22.207,12.863,22.695,11.436,22.695,9.629 M34.362,9.508c0,3.944-0.99,7.201-2.979,9.779
	c-2.568,3.34-6.83,5.007-12.793,5.007h-7.57v15.24H-0.661V-4.858h19.046c5.416,0,9.527,1.504,12.337,4.507
	C33.145,2.218,34.362,5.509,34.362,9.508z M65,62.08H-35v-95.508H65V62.08z M-25.391,52.471h80.774v-76.289h-80.774"/>
</svg>
