<?xml version="1.0" encoding="utf-8"?>
<!-- Generator: Adobe Illustrator 16.0.0, SVG Export Plug-In . SVG Version: 6.00 Build 0)  -->
<!DOCTYPE svg PUBLIC "-//W3C//DTD SVG 1.1//EN" "http://www.w3.org/Graphics/SVG/1.1/DTD/svg11.dtd">
<svg version="1.1" id="Layer_1" xmlns="http://www.w3.org/2000/svg" xmlns:xlink="http://www.w3.org/1999/xlink" x="0px" y="0px"
	 width="100px" height="95.504px" viewBox="-34.948 -33.377 100 95.504" enable-background="new -34.948 -33.377 100 95.504"
	 xml:space="preserve">
<g>
	<polyline fill="#DD5B26" points="65.052,62.127 -34.948,62.127 -34.948,-33.377 65.052,-33.377 65.052,62.127 	"/>
	<path fill="#FFFFFF" d="M22.73,9.681c0-1.781-0.542-3.215-1.639-4.276c-1.103-1.069-2.975-1.601-5.613-1.601h-4.412v11.923h4.378
		c2.835,0,4.788-0.592,5.846-1.758C22.257,12.914,22.73,11.484,22.73,9.681 M34.412,9.561c0,3.937-0.996,7.192-2.975,9.771
		c-2.566,3.338-6.835,5.009-12.805,5.009h-7.569v15.23H-0.61v-44.38h19.046c5.407,0,9.518,1.504,12.337,4.504
		C33.202,2.267,34.412,5.555,34.412,9.561z"/>
</g>
</svg>
