<?xml version="1.0" encoding="utf-8"?>
<!-- Generator: Adobe Illustrator 16.0.0, SVG Export Plug-In . SVG Version: 6.00 Build 0)  -->
<!DOCTYPE svg PUBLIC "-//W3C//DTD SVG 1.1//EN" "http://www.w3.org/Graphics/SVG/1.1/DTD/svg11.dtd">
<svg version="1.1" id="Layer_1" xmlns="http://www.w3.org/2000/svg" xmlns:xlink="http://www.w3.org/1999/xlink" x="0px" y="0px"
	 width="100px" height="95.507px" viewBox="-34.992 -33.42 100 95.507" enable-background="new -34.992 -33.42 100 95.507"
	 xml:space="preserve">
<g>
	<path fill="#EA4C3A" d="M65.008,62.087h-100V-33.42h100V62.087 M-25.385,52.479h80.771v-76.285h-80.771"/>
	<path fill="none" stroke="#EA4C3A" stroke-width="1.57" stroke-linejoin="round" stroke-miterlimit="10" d="M16.317-18.733
		c1.404,0.608,1.092,1.532,0.626,5.869C16.467-8.37,14.886-0.184,11.831,7.853c-3.058,8.044-7.597,15.94-11.551,21.794
		c-3.948,5.85-7.332,9.649-9.909,11.843c-2.588,2.192-4.377,2.771-5.545,2.974c-1.16,0.201-1.687,0-2-0.583
		c-0.314-0.582-0.423-1.564-0.155-2.729c0.264-1.175,0.894-2.541,2.68-4.288c1.802-1.757,4.751-3.897,8.866-5.901
		c4.114-1.998,9.381-3.853,13.708-5.115c4.329-1.269,7.699-1.948,10.652-2.482c2.957-0.536,5.488-0.927,7.961-1.119
		c2.482-0.198,4.913-0.198,7.281,0c2.375,0.192,4.698,0.583,6.702,1.064c2.005,0.487,3.689,1.073,5.167,2.004
		c1.474,0.924,2.743,2.192,3.37,3.604c0.642,1.416,0.642,2.974,0.111,4.094c-0.527,1.119-1.585,1.809-2.795,2.192
		c-1.207,0.387-2.58,0.484-4.217,0c-1.637-0.488-3.543-1.559-5.541-2.977c-1.997-1.409-4.112-3.159-6.852-5.893
		c-2.746-2.729-6.123-6.441-8.967-10.044c-2.844-3.608-5.175-7.115-6.757-10.087c-1.575-2.976-2.42-5.411-3.107-7.853
		C10.248-4.084,9.721-6.52,9.511-8.713c-0.21-2.199-0.109-4.148,0.104-5.697c0.21-1.566,0.532-2.733,1.056-3.512
		c0.525-0.782,1.269-1.173,1.796-1.365c0.525-0.2,0.846-0.2,1.158-0.244c0.314-0.045,0.626-0.146,1.109,0
		C15.195-19.397,15.809-19.025,16.317-18.733z"/>
</g>
</svg>
