<?xml version="1.0" encoding="utf-8"?>
<!-- Generator: Adobe Illustrator 16.0.0, SVG Export Plug-In . SVG Version: 6.00 Build 0)  -->
<!DOCTYPE svg PUBLIC "-//W3C//DTD SVG 1.1//EN" "http://www.w3.org/Graphics/SVG/1.1/DTD/svg11.dtd">
<svg version="1.1" id="Layer_1" xmlns="http://www.w3.org/2000/svg" xmlns:xlink="http://www.w3.org/1999/xlink" x="0px" y="0px"
	 width="100px" height="95.501px" viewBox="-34.991 -33.417 100 95.501" enable-background="new -34.991 -33.417 100 95.501"
	 xml:space="preserve">
<polyline fill="#EA4C3A" points="65.009,62.084 -34.991,62.084 -34.991,-33.417 65.009,-33.417 65.009,62.084 "/>
<path fill="none" stroke="#FFFFFF" stroke-width="1.4" stroke-linejoin="round" stroke-miterlimit="10" d="M16.219-18.835
	c1.507,0.709,1.194,1.63,0.729,5.973C16.476-8.381,14.89-0.196,11.835,7.856C8.777,15.894,4.239,23.792,0.284,29.639
	c-3.951,5.85-7.331,9.652-9.911,11.849c-2.588,2.192-4.377,2.778-5.545,2.974c-1.16,0.195-1.687,0-2-0.589
	c-0.314-0.589-0.423-1.552-0.153-2.733c0.262-1.164,0.892-2.53,2.678-4.281c1.802-1.753,4.751-3.903,8.865-5.897
	c4.114-1.998,9.384-3.853,13.711-5.121c4.329-1.263,7.699-1.949,10.651-2.485c2.957-0.54,5.488-0.924,7.967-1.123
	c2.477-0.185,4.906-0.185,7.281,0c2.372,0.199,4.691,0.583,6.698,1.077c2.001,0.484,3.692,1.067,5.17,2.001
	c1.471,0.921,2.739,2.189,3.37,3.607c0.638,1.409,0.638,2.974,0.11,4.093c-0.526,1.119-1.587,1.803-2.797,2.199
	c-1.211,0.381-2.584,0.479-4.22,0c-1.634-0.494-3.536-1.567-5.537-2.979c-2.001-1.415-4.116-3.172-6.855-5.901
	c-2.742-2.727-6.122-6.429-8.966-10.037c-2.843-3.607-5.174-7.115-6.755-10.09c-1.576-2.975-2.422-5.41-3.108-7.845
	c-0.687-2.442-1.213-4.877-1.423-7.069c-0.21-2.193-0.112-4.148,0.101-5.709c0.21-1.554,0.532-2.733,1.056-3.516
	c0.527-0.766,1.269-1.166,1.795-1.36c0.525-0.192,0.846-0.192,1.16-0.242c0.312-0.05,0.626-0.146,1.107,0
	c0.46,0.14,1.07,0.512,1.681,0.893"/>
</svg>
