<?xml version="1.0" encoding="utf-8"?>
<!-- Generator: Adobe Illustrator 16.0.0, SVG Export Plug-In . SVG Version: 6.00 Build 0)  -->
<!DOCTYPE svg PUBLIC "-//W3C//DTD SVG 1.1//EN" "http://www.w3.org/Graphics/SVG/1.1/DTD/svg11.dtd">
<svg version="1.1" id="Layer_1" xmlns="http://www.w3.org/2000/svg" xmlns:xlink="http://www.w3.org/1999/xlink" x="0px" y="0px"
	 width="240.646px" height="67.949px" viewBox="0 0 240.646 67.949" enable-background="new 0 0 240.646 67.949"
	 xml:space="preserve">
<g>
	<g>
		<path fill="#231F20" d="M98.165,30.163H86.759c-0.395,0-0.673-0.133-0.626-0.355c0.057-0.267,0.411-0.488,0.815-0.533l1.855-0.266
			c0.818-0.133,1.637-0.888,1.873-1.998l2.215-10.209l2.108-10.12c0.236-1.109-0.261-1.864-1.023-1.997l-1.742-0.267
			c-0.385-0.044-0.645-0.266-0.598-0.488c0.057-0.266,0.392-0.399,0.787-0.399h11.406c0.395,0,0.674,0.133,0.626,0.355
			c-0.057,0.267-0.411,0.488-0.815,0.533l-1.855,0.267c-0.818,0.133-1.637,0.888-1.872,1.997l-2.196,10.12l-2.127,10.209
			c-0.236,1.11,0.262,1.864,1.022,1.998l1.742,0.266c0.386,0.044,0.646,0.266,0.598,0.488C98.896,30.03,98.56,30.163,98.165,30.163z
			"/>
		<path fill="#231F20" d="M121.371,30.163H114c-0.395,0-0.541-0.133-0.494-0.355c0.057-0.267,0.383-0.355,0.702-0.622
			c0.373-0.311,0.725-0.932,1.008-2.264l2.02-9.499c0.547-2.574-0.178-3.906-2.152-3.906c-1.668,0-4.373,1.376-4.816,3.462
			l-2.133,10.031c-0.236,1.11,0.192,1.775,0.935,1.998l0.864,0.266c0.332,0.089,0.646,0.266,0.599,0.488
			c-0.057,0.266-0.392,0.399-0.787,0.399h-8.993c-0.395,0-0.674-0.133-0.626-0.355c0.057-0.267,0.392-0.399,0.815-0.533l0.978-0.266
			c0.837-0.222,1.593-0.888,1.829-1.998l2.633-12.384c0.236-1.11-0.227-1.82-1.032-1.953l-1.742-0.267
			c-0.341-0.044-0.654-0.222-0.598-0.488s0.392-0.399,0.787-0.399h6.449c0.352,0,0.532,0.178,0.598,0.488l0.275,0.977
			c0.05,0.177,0.216,0.222,0.43,0.044c1.433-1.376,3.441-1.953,5.285-1.953c3.641,0,5.701,2.486,4.729,7.057l-1.889,8.877
			c-0.236,1.11,0.281,1.775,1.023,1.998l0.908,0.266c0.322,0.133,0.602,0.266,0.555,0.488
			C122.102,30.03,121.766,30.163,121.371,30.163z"/>
		<path fill="#231F20" d="M143.299,12.453c-0.486,0.222-0.99,0.533-1.387,1.154l-10.541,16.556
			c-0.188,0.267-0.795,0.444-1.408,0.444c-0.527,0-1.104-0.177-1.145-0.399l-3.654-16.645c-0.105-0.533-0.523-0.844-0.986-0.933
			l-1.006-0.222c-0.332-0.089-0.654-0.222-0.588-0.533c0.047-0.222,0.383-0.355,0.777-0.355h8.904c0.395,0,0.684,0.089,0.627,0.355
			c-0.066,0.311-0.393,0.399-0.816,0.533l-1.205,0.311c-0.467,0.133-0.666,0.444-0.75,0.844c-0.047,0.222-0.061,0.488-0.01,0.666
			l1.602,10.208c0.041,0.222,0.391,0.222,0.525,0l6.033-10.208c0.125-0.178,0.225-0.444,0.271-0.666
			c0.086-0.4,0.02-0.71-0.391-0.844l-1.162-0.311c-0.375-0.089-0.654-0.222-0.588-0.533c0.057-0.266,0.383-0.355,0.777-0.355h6.186
			c0.395,0,0.674,0.133,0.625,0.355C143.934,12.142,143.643,12.275,143.299,12.453z"/>
		<path fill="#231F20" d="M156.799,20.753h-9.607c-0.482,0-1.006,0.399-1.109,0.888c-0.967,4.749,0.793,6.791,3.248,6.791
			c1.975,0,4.174-1.465,5.27-2.708c0.17-0.178,0.303-0.178,0.414-0.089l0.727,0.71c0.104,0.133,0.084,0.222,0.014,0.355
			c-1.666,2.264-4.779,3.906-7.762,3.906c-3.992,0-7.883-2.752-6.371-9.854c1.236-5.814,5.873-9.676,10.654-9.676
			c3.816,0,7.08,2.397,5.816,8.344C157.969,19.999,157.369,20.753,156.799,20.753z M151.928,12.719c-2.15,0-4.027,2.22-5.061,5.637
			c-0.146,0.488,0.016,0.754,0.498,0.754c0,0,1.307,0.044,2.271,0.044h0.922c0.832,0,1.412-0.044,1.934-0.222
			c0.881-0.222,1.238-0.666,1.389-1.376C154.457,14.85,153.857,12.719,151.928,12.719z"/>
		<path fill="#231F20" d="M165.1,30.607c-2.412,0-5.404-0.577-6.479-0.888c-0.289-0.089-0.471-0.266-0.449-0.577
			c0.1-0.666,0.271-1.687,0.354-2.485c0.117-0.755,0.236-1.731,0.281-2.353c0.014-0.267,0.201-0.533,0.508-0.533
			c0.264,0,0.479,0.222,0.467,0.488c0.488,3.684,2.195,4.527,5.793,4.527c1.623,0,3.908-0.843,4.314-2.752
			c0.99-4.661-10.455-2.619-8.943-9.72c0.707-3.329,3.262-5.238,7.736-5.238c2.326,0,6.424,0.533,6.424,0.533
			c0.264,0,0.391,0.222,0.344,0.444l-0.902,4.661c-0.039,0.177-0.201,0.532-0.465,0.532c-0.176,0-0.312-0.177-0.354-0.399
			c-0.389-3.329-1.949-4.039-5.238-4.039c-1.932,0-3.582,0.755-3.961,2.53c-0.811,3.817,10.725,2.175,9.139,9.632
			C172.678,29.63,168.828,30.607,165.1,30.607z"/>
		<path fill="#231F20" d="M187.482,29.32c-1.107,0.666-2.736,1.11-4.623,1.11c-3.553,0-5.6-1.11-4.977-4.04l2.682-12.605H177.1
			c-0.221,0-0.402-0.178-0.354-0.399l0.301-1.42c0.057-0.266,0.27-0.444,0.533-0.444h2.809c0.438,0,0.924-0.222,1.488-1.021
			l3.621-5.06c0.188-0.266,0.488-0.444,0.752-0.444s0.533,0.178,0.447,0.577l-1.264,5.948h5c0.307,0,0.42,0.089,0.363,0.355
			l-0.35,1.642c-0.057,0.267-0.252,0.355-0.471,0.355l-5.025-0.089l-2.482,11.673c-0.426,1.998-0.367,3.374,1.959,3.374
			c0.922,0,2.068-0.444,2.66-0.754c0.195-0.089,0.379-0.133,0.43,0.044l0.129,0.843C187.695,29.142,187.676,29.231,187.482,29.32z"
			/>
		<path fill="#231F20" d="M196.246,30.607c-5.703,0-7.818-4.705-6.732-9.81c1.086-5.104,5.225-9.72,10.885-9.72
			c5.703,0,7.836,4.616,6.75,9.72C206.062,25.902,201.947,30.607,196.246,30.607z M199.887,13.075c-3.555,0-4.98,3.817-5.688,7.146
			c-0.709,3.329-1.227,8.655,2.547,8.655c3.553,0,5.029-4.261,5.709-7.457C203.182,18.001,203.703,13.075,199.887,13.075z"/>
		<path fill="#231F20" d="M224.092,16.004c-0.129,0.399-0.283,0.71-0.678,0.71c-0.439,0-0.318-0.977-0.365-1.376
			c-0.055-0.977-0.738-1.687-2.098-1.687c-1.535,0-3.059,0.977-4.061,2.175c-0.41,0.488-0.799,1.287-0.932,1.908l-1.973,9.277
			c-0.236,1.11,0.279,1.775,1.023,1.998l0.863,0.266c0.367,0.133,0.646,0.266,0.6,0.488c-0.059,0.266-0.393,0.399-0.787,0.399
			h-9.082c-0.395,0-0.674-0.133-0.625-0.355c0.057-0.267,0.393-0.399,0.814-0.533l0.979-0.266c0.836-0.222,1.592-0.888,1.828-1.998
			l2.633-12.384c0.236-1.11-0.27-1.82-1.031-1.953l-1.305-0.267c-0.375-0.089-0.645-0.267-0.598-0.488
			c0.057-0.267,0.393-0.399,0.787-0.399h5.615c0.395,0,0.566,0.222,0.588,0.533l0.184,1.82c0.041,0.222,0.285,0.311,0.508,0.089
			c1.74-1.998,3.992-2.885,6.449-2.885c0.438,0,1.068,0.133,1.434,0.266c0.244,0.089,0.68,0.311,0.561,0.666L224.092,16.004z"/>
		<path fill="#231F20" d="M230.287,30.607c-2.414,0-5.404-0.577-6.48-0.888c-0.287-0.089-0.469-0.266-0.447-0.577
			c0.098-0.666,0.271-1.687,0.354-2.485c0.117-0.755,0.236-1.731,0.281-2.353c0.012-0.267,0.201-0.533,0.508-0.533
			c0.264,0,0.479,0.222,0.467,0.488c0.488,3.684,2.195,4.527,5.791,4.527c1.625,0,3.91-0.843,4.314-2.752
			c0.992-4.661-10.453-2.619-8.943-9.72c0.709-3.329,3.264-5.238,7.738-5.238c2.326,0,6.424,0.533,6.424,0.533
			c0.262,0,0.391,0.222,0.344,0.444l-0.904,4.661c-0.037,0.177-0.199,0.532-0.463,0.532c-0.176,0-0.314-0.177-0.354-0.399
			c-0.391-3.329-1.949-4.039-5.24-4.039c-1.93,0-3.582,0.755-3.959,2.53c-0.812,3.817,10.725,2.175,9.139,9.632
			C237.863,29.63,234.016,30.607,230.287,30.607z"/>
	</g>
	<g>
		<path fill="#004270" stroke="#FFFFFF" stroke-width="1.8425" d="M72.719,61.962c-0.544,2.798-3.253,5.065-6.05,5.065H5.098
			c-2.797,0-4.625-2.268-4.081-5.065l10.88-55.976c0.543-2.797,3.252-5.065,6.05-5.065h61.572c2.797,0,4.624,2.268,4.081,5.065
			L72.719,61.962z"/>
		<g>
			<path fill="#FFFFFF" d="M71.522,18.394c-0.925-1.09-2.386-1.716-4.002-1.716H52.683l1.625-7.856H19.983l-1.956,9.561h7.059
				c0.577,0,1.637,0,2.188,0.644c0.104,0.126,0.361,0.42,0.399,1.153c0.019,0.335-0.014,0.76-0.122,1.301
				c-0.001,0.002-4.658,22.705-4.949,24.123c-0.724,2.651-2.081,3.778-4.524,3.778h-6.433l-2.002,9.748h34.313l1.649-8.053h3.266
				c1.791,0,3.759-0.101,5.487-0.574c-0.058,0.303-0.141,0.604-0.141,0.604l2.225-0.003h9.99l4.135-19.766H52.913l-1.49,7.988
				c0,0,3.764,0,5.265,0c-0.102,0.491-0.202,0.996-0.276,1.429c-0.38,1.783-1.271,2.604-2.959,2.741c-0.189,0-5.973,0-6.134,0
				c-0.031-0.004-0.051-0.004-0.076-0.004c-0.001-0.109,0.012-0.243,0.052-0.454c0,0,3.612-17.346,3.692-17.745
				c0.197-0.856,0.368-1.168,0.434-1.264c0.137-0.019,0.431-0.017,0.659-0.017l0.236,0.003h7.423c0,0,0.035-0.005,0.058-0.005
				c-0.007,0.022-0.015,0.049-0.015,0.049l-0.013,0.111c-0.037,0.332-0.265,1.476-0.414,2.178l-0.456,2.124h12.234l0.269-1.28
				c0.032-0.137,0.731-3.435,1.035-5.108l-0.007,0.04C72.727,20.749,72.403,19.426,71.522,18.394z"/>
			<path fill="#004270" d="M38.32,51.076c-2.269,0-5.155-0.918-4.27-5.21c0,0,4.975-24.204,4.971-24.19
				c0.958-3.731,3.092-4.999,6.139-4.999h5.722l1.276-6.154H21.443l-1.259,6.157h4.815c0.748,0,2.492,0,3.598,1.297
				c0.805,0.938,1.024,2.217,0.675,3.914l-4.964,24.19c-0.82,3.039-2.617,5.002-6.143,5.002h-5.057l-1.307,6.344h30.7l1.309-6.352
				H38.32z"/>
			<path fill-rule="evenodd" clip-rule="evenodd" fill="#004270" d="M38.21,49.377c-1.532,0-3.049-0.262-2.464-3.103l4.967-24.203
				c0.503-2.576,2.263-3.694,4.509-3.694h22.383c2.082,0,3.513,1.418,3.109,3.324c-0.308,1.678-1.029,5.07-1.029,5.07h-8.616
				c0,0,0.381-1.773,0.445-2.335c0.426-1.677-0.554-2.238-1.933-2.124H52.23c-1.5,0-2.351-0.151-2.958,2.549l-3.689,17.761
				c-0.248,1.178-0.124,2.46,1.74,2.574h6.31c2.992-0.227,4.093-2.129,4.501-4.033c0.22-1.34,0.731-3.537,0.731-3.537h-5.327
				l0.851-4.59h14.019l-3.427,16.343h-8.625c0,0,0.4-1.907,0.56-2.689c-0.88,1.79-3.343,2.688-8.134,2.688H38.21z"/>
		</g>
	</g>
	<g>
		<path fill="#231F20" d="M106.637,47.287l-1.426,0.311c-0.828,0.178-1.637,0.888-1.873,1.997l-1.728,8.123
			c-0.094,0.444-0.11,0.933,0.096,1.198c0.113,0.089,0.172,0.223,0.134,0.4c-0.066,0.311-0.26,0.398-0.479,0.398
			c-0.176,0-0.42-0.088-0.542-0.133l-2.729-1.198c-0.357-0.178-0.664-0.178-1.027,0.089c-1.126,0.754-3.407,1.376-5.206,1.376
			c-6.756,0-11.076-4.438-9.084-13.805c1.784-8.389,7.786-13.715,14.366-13.715c2.632,0,5.345,0.444,7.764,0.622
			c0.263,0,0.451,0.355,0.404,0.577l-1.492,7.013c-0.084,0.399-0.395,0.622-0.57,0.622c-0.22,0-0.401-0.178-0.423-0.488
			c-0.118-4.395-1.799-6.392-6.011-6.392c-5.747,0-7.941,8.255-8.828,12.428c-0.954,4.483-1.088,11.097,4.483,11.097
			c2.106,0,5.056-1.908,5.632-4.616l0.868-4.083c0.189-0.889,0.064-1.332-0.143-1.599c-0.241-0.311-0.476-0.443-0.419-0.71
			c0.047-0.223,0.26-0.399,0.655-0.399h7.765c0.351,0,0.523,0.222,0.476,0.443C107.273,46.976,107.05,47.198,106.637,47.287z"/>
		<path fill="#231F20" d="M122.82,45.245c-0.129,0.399-0.283,0.71-0.678,0.71c-0.439,0-0.32-0.977-0.367-1.375
			c-0.055-0.977-0.736-1.688-2.098-1.688c-1.535,0-3.059,0.977-4.059,2.175c-0.412,0.489-0.8,1.288-0.933,1.909l-1.973,9.276
			c-0.236,1.11,0.281,1.775,1.023,1.997l0.864,0.267c0.366,0.134,0.645,0.267,0.599,0.488c-0.057,0.267-0.393,0.399-0.787,0.399
			h-9.081c-0.395,0-0.674-0.133-0.626-0.354c0.057-0.267,0.392-0.399,0.815-0.533l0.979-0.267c0.836-0.222,1.592-0.887,1.828-1.997
			l2.634-12.384c0.235-1.109-0.271-1.82-1.032-1.953l-1.304-0.266c-0.376-0.09-0.646-0.267-0.598-0.488
			c0.056-0.267,0.392-0.4,0.786-0.4h5.615c0.396,0,0.567,0.223,0.589,0.533l0.184,1.819c0.04,0.223,0.284,0.312,0.506,0.089
			c1.742-1.997,3.992-2.885,6.449-2.885c0.439,0,1.068,0.133,1.436,0.267c0.244,0.089,0.68,0.311,0.559,0.665L122.82,45.245z"/>
		<path fill="#231F20" d="M129.584,59.848c-5.703,0-7.816-4.705-6.732-9.81c1.086-5.104,5.227-9.721,10.887-9.721
			c5.701,0,7.834,4.616,6.75,9.721C139.402,55.143,135.287,59.848,129.584,59.848z M133.225,42.315
			c-3.553,0-4.979,3.817-5.688,7.146c-0.707,3.329-1.227,8.655,2.547,8.655c3.553,0,5.029-4.262,5.709-7.457
			C136.52,47.242,137.041,42.315,133.225,42.315z"/>
		<path fill="#231F20" d="M160.342,59.404h-6.01c-0.352,0-0.533-0.178-0.598-0.488l-0.275-0.977
			c-0.051-0.178-0.217-0.222-0.43-0.044c-1.434,1.376-3.441,1.953-5.283,1.953c-3.643,0-5.701-2.485-4.73-7.058l1.889-8.877
			c0.236-1.109-0.281-1.775-1.023-1.998l-0.908-0.266c-0.322-0.134-0.602-0.267-0.555-0.488c0.057-0.267,0.393-0.4,0.787-0.4h7.371
			c0.395,0,0.541,0.134,0.494,0.355c-0.057,0.267-0.383,0.355-0.703,0.621c-0.373,0.311-0.725,0.933-1.008,2.264l-2.02,9.499
			c-0.547,2.574,0.178,3.906,2.152,3.906c1.668,0,4.373-1.376,4.816-3.462l2.133-10.031c0.236-1.109-0.191-1.775-0.936-1.998
			l-0.863-0.266c-0.332-0.09-0.646-0.267-0.6-0.488c0.057-0.267,0.393-0.4,0.787-0.4h6.23c0.352,0,0.576,0.178,0.5,0.533
			l-0.799,2.93l-2.566,12.073c-0.236,1.109,0.236,1.775,1.031,1.952l1.305,0.267c0.332,0.089,0.654,0.222,0.598,0.488
			S160.736,59.404,160.342,59.404z"/>
		<path fill="#231F20" d="M172.186,59.849c-1.711,0-2.516-0.133-3.615-0.533c-0.244-0.088-0.414,0.09-0.461,0.312l-0.842,3.522
			c-0.234,1.109,0.236,1.775,1.033,1.953l1.303,0.267c0.332,0.089,0.654,0.222,0.598,0.488s-0.391,0.399-0.787,0.399h-7.719
			c-0.396,0-0.543-0.133-0.496-0.355c0.057-0.266,0.383-0.355,0.703-0.621c0.373-0.311,0.725-0.932,0.998-2.22l4.162-19.147
			c0.236-1.109-0.217-1.864-0.979-1.998l-1.303-0.266c-0.377-0.089-0.646-0.267-0.6-0.488c0.057-0.267,0.393-0.399,0.787-0.399
			h5.703c0.352,0,0.523,0.222,0.588,0.532l0.197,0.933c0.061,0.133,0.129,0.222,0.26,0.222c0.088,0,0.238-0.089,0.398-0.222
			c1.6-1.332,3.389-1.909,4.836-1.909c3.992,0,6.918,2.752,5.398,9.898C181.066,56.253,176.441,59.849,172.186,59.849z
			 M175.652,42.715c-1.402,0-2.986,0.843-4.15,2.397c-0.197,0.311-0.486,0.843-0.561,1.197l-1.566,7.369
			c-0.652,3.062,0.188,4.483,2.775,4.483c1.975,0,4.428-2.264,5.637-7.946C178.957,44.712,177.67,42.715,175.652,42.715z"/>
	</g>
</g>
</svg>
