<?xml version="1.0" encoding="utf-8"?>
<!-- Generator: Adobe Illustrator 16.0.0, SVG Export Plug-In . SVG Version: 6.00 Build 0)  -->
<!DOCTYPE svg PUBLIC "-//W3C//DTD SVG 1.1//EN" "http://www.w3.org/Graphics/SVG/1.1/DTD/svg11.dtd">
<svg version="1.1" id="Layer_1" xmlns="http://www.w3.org/2000/svg" xmlns:xlink="http://www.w3.org/1999/xlink" x="0px" y="0px"
	 width="234.363px" height="67.949px" viewBox="0 0 234.363 67.949" enable-background="new 0 0 234.363 67.949"
	 xml:space="preserve">
<g>
	<g>
		<path fill="#004270" stroke="#FFFFFF" stroke-width="1.8425" d="M72.719,61.963c-0.544,2.797-3.252,5.064-6.05,5.064H5.098
			c-2.798,0-4.624-2.268-4.081-5.064L11.898,5.987c0.544-2.797,3.252-5.065,6.05-5.065h61.571c2.798,0,4.625,2.268,4.081,5.065
			L72.719,61.963z"/>
		<g>
			<path fill="#FFFFFF" d="M71.523,18.394c-0.926-1.091-2.387-1.716-4.002-1.716H52.683l1.626-7.857H19.984l-1.956,9.561h7.06
				c0.576,0,1.637,0,2.188,0.644c0.105,0.126,0.361,0.42,0.399,1.153c0.019,0.336-0.014,0.76-0.122,1.301
				c-0.001,0.002-4.658,22.704-4.948,24.123c-0.724,2.651-2.081,3.778-4.524,3.778h-6.433l-2.003,9.748h34.313l1.649-8.053h3.266
				c1.791,0,3.758-0.101,5.486-0.574c-0.058,0.303-0.141,0.604-0.141,0.604l2.225-0.003h9.99l4.135-19.766H52.913l-1.489,7.988
				c0,0,3.764,0,5.265,0c-0.103,0.491-0.202,0.995-0.276,1.429c-0.379,1.783-1.271,2.604-2.959,2.741c-0.188,0-5.972,0-6.133,0
				c-0.031-0.004-0.051-0.004-0.076-0.004c-0.001-0.109,0.012-0.243,0.053-0.454c0,0,3.611-17.346,3.691-17.745
				c0.196-0.856,0.367-1.169,0.434-1.265c0.137-0.018,0.432-0.016,0.659-0.016l0.236,0.003h7.423c0,0,0.035-0.005,0.059-0.005
				c-0.008,0.022-0.016,0.049-0.016,0.049l-0.013,0.11c-0.036,0.332-0.265,1.476-0.413,2.178l-0.455,2.124h12.233l0.269-1.279
				c0.033-0.138,0.731-3.435,1.035-5.108l-0.006,0.04C72.727,20.749,72.404,19.426,71.523,18.394z"/>
			<path fill="#004270" d="M38.32,51.076c-2.269,0-5.154-0.918-4.27-5.21c0,0,4.975-24.204,4.971-24.19
				c0.958-3.731,3.093-4.998,6.139-4.998h5.722l1.276-6.154H21.443l-1.258,6.157H25c0.748,0,2.492,0,3.598,1.297
				c0.805,0.938,1.024,2.217,0.676,3.914l-4.965,24.191c-0.82,3.039-2.617,5.002-6.144,5.002h-5.056l-1.308,6.344h30.7l1.308-6.352
				H38.32z"/>
			<path fill-rule="evenodd" clip-rule="evenodd" fill="#004270" d="M38.21,49.378c-1.532,0-3.049-0.262-2.463-3.103l4.967-24.204
				c0.502-2.575,2.263-3.694,4.508-3.694h22.384c2.082,0,3.513,1.419,3.109,3.324c-0.309,1.677-1.029,5.07-1.029,5.07H61.07
				c0,0,0.381-1.772,0.444-2.335c0.426-1.677-0.554-2.238-1.933-2.124h-7.351c-1.5,0-2.351-0.152-2.958,2.549l-3.689,17.761
				c-0.248,1.178-0.123,2.46,1.74,2.574h6.311c2.992-0.227,4.093-2.129,4.5-4.033c0.221-1.34,0.732-3.537,0.732-3.537h-5.328
				l0.852-4.59h14.019L64.982,49.38h-8.625c0,0,0.4-1.907,0.561-2.69c-0.881,1.791-3.344,2.688-8.135,2.688H38.21z"/>
		</g>
	</g>
	<g>
		<g>
			<path fill="#231F20" d="M112.537,18.534l-1.426,0.311c-0.827,0.177-1.637,0.887-1.872,1.997l-1.728,8.123
				c-0.095,0.444-0.11,0.932,0.096,1.199c0.113,0.089,0.172,0.222,0.135,0.399c-0.065,0.311-0.26,0.399-0.479,0.399
				c-0.176,0-0.42-0.089-0.542-0.133l-2.729-1.199c-0.356-0.177-0.664-0.177-1.027,0.089c-1.126,0.754-3.407,1.376-5.206,1.376
				c-6.756,0-11.076-4.439-9.085-13.804c1.784-8.39,7.787-13.716,14.367-13.716c2.632,0,5.345,0.444,7.764,0.622
				c0.264,0,0.451,0.355,0.403,0.577l-1.491,7.014c-0.085,0.399-0.395,0.621-0.57,0.621c-0.22,0-0.4-0.178-0.423-0.488
				c-0.118-4.395-1.8-6.392-6.011-6.392c-5.746,0-7.941,8.256-8.828,12.428c-0.953,4.483-1.088,11.097,4.483,11.097
				c2.105,0,5.056-1.909,5.632-4.617l0.868-4.083c0.189-0.888,0.064-1.332-0.143-1.598c-0.241-0.311-0.476-0.444-0.419-0.71
				c0.047-0.222,0.26-0.399,0.655-0.399h7.765c0.351,0,0.523,0.222,0.476,0.444C113.173,18.223,112.951,18.446,112.537,18.534z"/>
			<path fill="#231F20" d="M128.719,16.493c-0.129,0.399-0.281,0.71-0.676,0.71c-0.439,0-0.318-0.977-0.367-1.376
				c-0.055-0.977-0.736-1.687-2.098-1.687c-1.535,0-3.059,0.977-4.059,2.175c-0.41,0.488-0.801,1.287-0.932,1.908l-1.975,9.277
				c-0.234,1.109,0.281,1.775,1.023,1.997l0.865,0.267c0.367,0.133,0.645,0.266,0.598,0.488c-0.057,0.266-0.393,0.399-0.787,0.399
				h-9.081c-0.395,0-0.674-0.133-0.627-0.355c0.057-0.267,0.393-0.399,0.815-0.532l0.979-0.267c0.837-0.222,1.593-0.888,1.828-1.997
				l2.634-12.384c0.234-1.11-0.272-1.82-1.033-1.953l-1.304-0.267c-0.376-0.089-0.645-0.267-0.598-0.488
				c0.057-0.266,0.392-0.399,0.787-0.399h5.616c0.395,0,0.566,0.222,0.588,0.533l0.184,1.82c0.039,0.222,0.285,0.311,0.508,0.089
				c1.74-1.998,3.99-2.885,6.447-2.885c0.439,0,1.068,0.133,1.436,0.266c0.244,0.089,0.68,0.311,0.559,0.666L128.719,16.493z"/>
			<path fill="#231F20" d="M135.484,31.096c-5.703,0-7.816-4.705-6.73-9.81c1.084-5.104,5.225-9.721,10.885-9.721
				c5.701,0,7.836,4.616,6.75,9.721S141.188,31.096,135.484,31.096z M139.125,13.563c-3.553,0-4.979,3.817-5.688,7.146
				c-0.707,3.329-1.227,8.655,2.547,8.655c3.553,0,5.029-4.261,5.709-7.457C142.42,18.49,142.941,13.563,139.125,13.563z"/>
			<path fill="#231F20" d="M166.242,30.652h-6.01c-0.352,0-0.533-0.178-0.598-0.488l-0.275-0.977
				c-0.051-0.178-0.215-0.222-0.43-0.044c-1.434,1.376-3.441,1.953-5.283,1.953c-3.643,0-5.701-2.486-4.729-7.058l1.887-8.877
				c0.236-1.109-0.281-1.775-1.023-1.997l-0.908-0.267c-0.322-0.133-0.602-0.267-0.555-0.488c0.057-0.266,0.393-0.399,0.787-0.399
				h7.371c0.395,0,0.541,0.133,0.494,0.355c-0.057,0.266-0.383,0.354-0.703,0.621c-0.373,0.311-0.725,0.932-1.008,2.264l-2.02,9.499
				c-0.547,2.574,0.178,3.905,2.152,3.905c1.668,0,4.373-1.376,4.816-3.462l2.133-10.031c0.236-1.109-0.191-1.775-0.936-1.997
				l-0.863-0.267c-0.332-0.089-0.645-0.267-0.598-0.488c0.055-0.266,0.391-0.399,0.785-0.399h6.23c0.35,0,0.576,0.178,0.5,0.533
				l-0.799,2.929l-2.566,12.073c-0.236,1.109,0.236,1.775,1.033,1.953l1.303,0.267c0.332,0.089,0.654,0.222,0.598,0.488
				C166.973,30.519,166.637,30.652,166.242,30.652z"/>
			<path fill="#231F20" d="M205.443,21.242h-9.607c-0.482,0-1.006,0.399-1.109,0.888c-0.967,4.749,0.793,6.791,3.25,6.791
				c1.973,0,4.17-1.465,5.27-2.708c0.168-0.177,0.301-0.177,0.414-0.088l0.727,0.71c0.102,0.133,0.084,0.222,0.012,0.355
				c-1.666,2.264-4.779,3.906-7.764,3.906c-3.99,0-7.881-2.752-6.369-9.854c1.236-5.814,5.873-9.676,10.654-9.676
				c3.816,0,7.08,2.397,5.814,8.345C206.613,20.487,206.014,21.242,205.443,21.242z M200.57,13.208c-2.148,0-4.023,2.22-5.059,5.638
				c-0.146,0.488,0.016,0.754,0.498,0.754c0,0,1.307,0.045,2.271,0.045h0.922c0.832,0,1.412-0.045,1.934-0.222
				c0.881-0.222,1.238-0.666,1.389-1.376C203.102,15.338,202.502,13.208,200.57,13.208z"/>
			<path fill="#231F20" d="M178.088,31.097c-1.713,0-2.518-0.133-3.617-0.533c-0.244-0.089-0.414,0.089-0.461,0.311l-0.842,3.523
				c-0.236,1.11,0.238,1.776,1.033,1.954l1.303,0.266c0.332,0.088,0.654,0.223,0.598,0.488s-0.391,0.398-0.787,0.398h-7.721
				c-0.395,0-0.541-0.133-0.494-0.354c0.057-0.267,0.383-0.355,0.703-0.622c0.373-0.312,0.725-0.933,0.998-2.22l4.162-19.147
				c0.236-1.11-0.217-1.864-0.979-1.998l-1.303-0.267c-0.377-0.088-0.646-0.266-0.6-0.488c0.057-0.266,0.393-0.399,0.787-0.399
				h5.703c0.352,0,0.523,0.222,0.588,0.533l0.197,0.932c0.061,0.134,0.129,0.223,0.26,0.223c0.088,0,0.238-0.089,0.398-0.223
				c1.6-1.331,3.389-1.908,4.836-1.908c3.992,0,6.918,2.752,5.398,9.898C186.967,27.501,182.342,31.097,178.088,31.097z
				 M181.553,13.963c-1.404,0-2.986,0.843-4.15,2.397c-0.197,0.311-0.486,0.844-0.561,1.198l-1.566,7.368
				c-0.652,3.063,0.186,4.484,2.775,4.484c1.973,0,4.43-2.264,5.637-7.946C184.857,15.96,183.57,13.963,181.553,13.963z"/>
		</g>
		<g>
			<g>
				<path fill="#231F20" d="M91.882,62.818H80.477c-0.395,0-0.674-0.133-0.626-0.355c0.057-0.266,0.41-0.488,0.814-0.533
					l1.855-0.266c0.817-0.133,1.637-0.888,1.873-1.998l2.214-10.209l2.108-10.119c0.236-1.109-0.262-1.864-1.022-1.998l-1.742-0.266
					c-0.386-0.045-0.646-0.268-0.598-0.488c0.056-0.267,0.392-0.4,0.786-0.4h11.406c0.395,0,0.674,0.134,0.626,0.355
					c-0.057,0.266-0.411,0.488-0.814,0.533l-1.855,0.266c-0.818,0.134-1.637,0.889-1.872,1.998l-2.197,10.119l-2.127,10.209
					c-0.235,1.11,0.262,1.865,1.023,1.998l1.742,0.266c0.385,0.045,0.645,0.268,0.598,0.488
					C92.613,62.686,92.278,62.818,91.882,62.818z"/>
				<path fill="#231F20" d="M115.088,62.818h-7.37c-0.395,0-0.541-0.133-0.494-0.355c0.057-0.266,0.383-0.355,0.702-0.621
					c0.373-0.311,0.725-0.932,1.008-2.264l2.021-9.498c0.547-2.576-0.179-3.906-2.152-3.906c-1.668,0-4.373,1.375-4.816,3.461
					l-2.134,10.031c-0.235,1.11,0.193,1.775,0.936,1.998l0.864,0.266c0.332,0.09,0.646,0.268,0.598,0.488
					c-0.057,0.268-0.392,0.4-0.786,0.4H94.47c-0.395,0-0.674-0.133-0.626-0.355c0.056-0.266,0.392-0.4,0.815-0.533l0.978-0.266
					c0.837-0.223,1.593-0.888,1.828-1.998l2.634-12.383c0.235-1.109-0.228-1.82-1.032-1.953l-1.742-0.267
					c-0.342-0.044-0.655-0.222-0.599-0.488s0.393-0.399,0.787-0.399h6.449c0.351,0,0.532,0.178,0.598,0.488l0.275,0.977
					c0.05,0.178,0.216,0.222,0.429,0.045c1.434-1.377,3.442-1.953,5.285-1.953c3.641,0,5.7,2.484,4.729,7.057l-1.888,8.877
					c-0.236,1.11,0.28,1.775,1.022,1.998l0.908,0.266c0.323,0.133,0.602,0.268,0.555,0.488
					C115.819,62.686,115.484,62.818,115.088,62.818z"/>
				<path fill="#231F20" d="M137.016,45.107c-0.486,0.223-0.99,0.533-1.387,1.154L125.09,62.818
					c-0.188,0.266-0.797,0.443-1.41,0.443c-0.527,0-1.104-0.178-1.143-0.399l-3.656-16.646c-0.105-0.531-0.521-0.842-0.986-0.932
					l-1.006-0.222c-0.332-0.089-0.654-0.222-0.587-0.532c0.047-0.223,0.382-0.355,0.777-0.355h8.906
					c0.395,0,0.682,0.088,0.625,0.355c-0.064,0.311-0.391,0.398-0.814,0.532l-1.207,0.312c-0.467,0.133-0.664,0.443-0.75,0.842
					c-0.047,0.223-0.059,0.488-0.01,0.666l1.602,10.209c0.041,0.223,0.393,0.223,0.527,0l6.031-10.209
					c0.125-0.178,0.227-0.443,0.273-0.666c0.084-0.398,0.02-0.709-0.391-0.842l-1.164-0.312c-0.375-0.089-0.654-0.222-0.588-0.532
					c0.057-0.268,0.383-0.355,0.777-0.355h6.186c0.395,0,0.674,0.133,0.627,0.355C137.652,44.797,137.361,44.93,137.016,45.107z"/>
				<path fill="#231F20" d="M150.516,53.408h-9.607c-0.482,0-1.006,0.398-1.109,0.888c-0.965,4.749,0.793,6.792,3.25,6.792
					c1.975,0,4.172-1.466,5.27-2.709c0.17-0.178,0.301-0.178,0.414-0.088l0.727,0.71c0.104,0.134,0.084,0.222,0.012,0.354
					c-1.666,2.264-4.779,3.906-7.762,3.906c-3.992,0-7.881-2.752-6.371-9.854c1.236-5.814,5.875-9.676,10.656-9.676
					c3.816,0,7.078,2.396,5.814,8.344C151.686,52.654,151.086,53.408,150.516,53.408z M145.645,45.375
					c-2.15,0-4.025,2.219-5.059,5.637c-0.148,0.488,0.014,0.754,0.496,0.754c0,0,1.307,0.045,2.273,0.045h0.92
					c0.834,0,1.414-0.045,1.934-0.223c0.881-0.222,1.238-0.666,1.391-1.375C148.174,47.504,147.574,45.375,145.645,45.375z"/>
				<path fill="#231F20" d="M158.816,63.262c-2.412,0-5.404-0.576-6.479-0.888c-0.289-0.089-0.471-0.267-0.447-0.577
					c0.098-0.666,0.27-1.687,0.354-2.486c0.115-0.754,0.236-1.73,0.279-2.352c0.014-0.266,0.201-0.533,0.51-0.533
					c0.262,0,0.479,0.223,0.465,0.488c0.49,3.685,2.197,4.527,5.793,4.527c1.623,0,3.908-0.843,4.314-2.752
					c0.992-4.66-10.453-2.618-8.943-9.721c0.707-3.328,3.264-5.236,7.738-5.236c2.324,0,6.422,0.531,6.422,0.531
					c0.264,0,0.393,0.223,0.346,0.445l-0.904,4.66c-0.037,0.178-0.201,0.533-0.465,0.533c-0.174,0-0.312-0.178-0.354-0.4
					c-0.389-3.328-1.947-4.039-5.238-4.039c-1.93,0-3.582,0.754-3.959,2.529c-0.812,3.818,10.723,2.176,9.137,9.633
					C166.395,62.285,162.545,63.262,158.816,63.262z"/>
				<path fill="#231F20" d="M181.199,61.975c-1.105,0.666-2.736,1.109-4.623,1.109c-3.553,0-5.598-1.109-4.975-4.039l2.68-12.605
					h-3.465c-0.219,0-0.4-0.178-0.354-0.399l0.303-1.421c0.057-0.266,0.27-0.443,0.533-0.443h2.807c0.439,0,0.924-0.223,1.488-1.021
					l3.621-5.06c0.189-0.267,0.49-0.444,0.752-0.444c0.264,0,0.533,0.178,0.449,0.578l-1.266,5.947h5
					c0.309,0,0.42,0.088,0.363,0.355l-0.348,1.643c-0.057,0.266-0.252,0.354-0.471,0.354l-5.027-0.089l-2.48,11.674
					c-0.426,1.997-0.367,3.373,1.957,3.373c0.922,0,2.068-0.443,2.662-0.754c0.193-0.09,0.379-0.134,0.428,0.044l0.129,0.843
					C181.412,61.797,181.395,61.887,181.199,61.975z"/>
				<path fill="#231F20" d="M189.963,63.262c-5.703,0-7.816-4.705-6.732-9.809c1.086-5.105,5.227-9.721,10.885-9.721
					c5.703,0,7.836,4.615,6.752,9.721C199.781,58.557,195.666,63.262,189.963,63.262z M193.604,45.729
					c-3.553,0-4.979,3.817-5.688,7.146c-0.707,3.33-1.227,8.656,2.547,8.656c3.553,0,5.029-4.262,5.709-7.457
					C196.898,50.656,197.42,45.729,193.604,45.729z"/>
				<path fill="#231F20" d="M217.811,48.658c-0.129,0.4-0.283,0.711-0.678,0.711c-0.439,0-0.32-0.977-0.365-1.377
					c-0.057-0.977-0.738-1.686-2.1-1.686c-1.535,0-3.059,0.977-4.059,2.175c-0.412,0.487-0.801,1.287-0.934,1.909l-1.973,9.275
					c-0.234,1.11,0.281,1.775,1.023,1.998l0.865,0.266c0.367,0.133,0.645,0.268,0.598,0.488c-0.057,0.268-0.393,0.4-0.787,0.4h-9.08
					c-0.395,0-0.674-0.133-0.627-0.355c0.057-0.266,0.393-0.4,0.814-0.533l0.979-0.266c0.838-0.223,1.594-0.888,1.828-1.998
					l2.635-12.383c0.236-1.109-0.271-1.82-1.033-1.953l-1.303-0.267c-0.377-0.089-0.645-0.267-0.598-0.488
					c0.057-0.267,0.391-0.399,0.787-0.399h5.613c0.396,0,0.568,0.223,0.59,0.533l0.184,1.819c0.041,0.222,0.285,0.312,0.508,0.089
					c1.74-1.998,3.99-2.885,6.447-2.885c0.439,0,1.068,0.133,1.436,0.266c0.244,0.09,0.68,0.311,0.561,0.666L217.811,48.658z"/>
				<path fill="#231F20" d="M224.004,63.262c-2.412,0-5.404-0.576-6.479-0.888c-0.289-0.089-0.471-0.267-0.449-0.577
					c0.1-0.666,0.271-1.687,0.354-2.486c0.117-0.754,0.236-1.73,0.281-2.352c0.014-0.266,0.201-0.533,0.508-0.533
					c0.264,0,0.48,0.223,0.467,0.488c0.488,3.685,2.195,4.527,5.793,4.527c1.623,0,3.908-0.843,4.314-2.752
					c0.99-4.66-10.455-2.618-8.943-9.721c0.707-3.328,3.264-5.236,7.736-5.236c2.326,0,6.424,0.531,6.424,0.531
					c0.264,0,0.393,0.223,0.344,0.445l-0.902,4.66c-0.037,0.178-0.201,0.533-0.465,0.533c-0.176,0-0.312-0.178-0.354-0.4
					c-0.389-3.328-1.949-4.039-5.238-4.039c-1.93,0-3.582,0.754-3.961,2.529c-0.811,3.818,10.725,2.176,9.139,9.633
					C231.582,62.285,227.732,63.262,224.004,63.262z"/>
			</g>
		</g>
	</g>
</g>
</svg>
