<?xml version="1.0" encoding="utf-8"?>
<!-- Generator: Adobe Illustrator 16.0.0, SVG Export Plug-In . SVG Version: 6.00 Build 0)  -->
<!DOCTYPE svg PUBLIC "-//W3C//DTD SVG 1.1//EN" "http://www.w3.org/Graphics/SVG/1.1/DTD/svg11.dtd">
<svg version="1.1" id="Layer_1" xmlns="http://www.w3.org/2000/svg" xmlns:xlink="http://www.w3.org/1999/xlink" x="0px" y="0px"
	 width="105px" height="105px" viewBox="0 -0.001 105 105" enable-background="new 0 -0.001 105 105" xml:space="preserve">
<g>
	<path stroke="#000000" stroke-width="5" stroke-miterlimit="10" d="M52.5,2.499c27.603,0,50,22.388,50,50c0,27.604-22.397,50-50,50
		c-27.612,0-50-22.396-50-50C2.5,24.887,24.888,2.499,52.5,2.499z"/>
	<path fill="#FFFFFF" d="M41.498,75.169c-0.809,0.816-0.809,2.167,0,2.97c0.822,0.848,2.14,0.849,2.97,0l23.908-24.151
		c0.829-0.828,0.829-2.148,0-2.979L44.468,26.84c-0.83-0.827-2.148-0.827-2.97,0c-0.809,0.83-0.809,2.169-0.001,2.993l21.819,22.669
		L41.498,75.169z"/>
</g>
</svg>
