<?xml version="1.0" encoding="utf-8"?>
<!DOCTYPE svg PUBLIC "-//W3C//DTD SVG 1.1//EN" "http://www.w3.org/Graphics/SVG/1.1/DTD/svg11.dtd">
<svg version="1.1" id="Layer_1" xmlns="http://www.w3.org/2000/svg" xmlns:xlink="http://www.w3.org/1999/xlink" x="0px" y="0px"
	 width="86px" height="86px" viewBox="0 0 86 86" enable-background="new 0 0 86 86" xml:space="preserve">
<path fill="#3b5998" d="M75.25,0h-64.5C4.838,0,0,4.838,0,10.75v64.5C0,81.163,4.838,86,10.75,86h32.621V55.164H33.073V41.73h10.298
	V35c0-10.374,7.66-18.5,17.439-18.5h9.492v15.169h-8.492c-2.223,0-2.875,1.276-2.875,3.04v7.021h11.367v13.434H58.936V86H75.25
	C81.164,86,86,81.163,86,75.25v-64.5C86,4.838,81.164,0,75.25,0z"/>
</svg>
