<?xml version="1.0" encoding="utf-8"?>
<!DOCTYPE svg PUBLIC "-//W3C//DTD SVG 1.1//EN" "http://www.w3.org/Graphics/SVG/1.1/DTD/svg11.dtd">
<svg version="1.1" id="Layer_1" xmlns="http://www.w3.org/2000/svg" xmlns:xlink="http://www.w3.org/1999/xlink" x="0px" y="0px"
	 width="120px" height="86px" viewBox="-44 -27 120 86" enable-background="new -44 -27 120 86" xml:space="preserve">
<g>
	<path fill="#bb0000" d="M72.168-8.441c0,0-1.118-8.432-4.557-12.145c-4.359-4.865-9.245-4.896-11.483-5.17
		C40.087-27,16.024-27,16.024-27h-0.054c0,0-24.062,0-40.103,1.244c-2.238,0.274-7.119,0.305-11.483,5.17
		c-3.434,3.713-4.556,12.145-4.556,12.145s-1.146,9.894-1.146,19.787v9.274c0,9.898,1.146,19.792,1.146,19.792
		s1.118,8.427,4.556,12.132c4.364,4.868,10.086,4.721,12.639,5.229C-13.809,58.709,16,59,16,59s24.087-0.042,40.128-1.273
		c2.238-0.286,7.124-0.314,11.483-5.18c3.438-3.705,4.557-12.135,4.557-12.135s1.148-9.894,1.148-19.789v-9.272
		C73.316,1.452,72.168-8.441,72.168-8.441z"/>
	<polygon fill="#FFFFFF" points="1.684,-5.501 1.684,37.499 37.517,16 	"/>
</g>
</svg>
