<?xml version="1.0"?>
<!--Icons from directory ""-->
<svg xmlns="http://www.w3.org/2000/svg" width="241" height="3369" viewBox="0 0 241 3369"><svg xmlns:xlink="http://www.w3.org/1999/xlink" id="alert-info" xml:space="preserve" height="92" viewBox="0 0 92 92" width="92" version="1.1" y="0" x="0px" enable-background="new 0 0 92 92">	<path d="m45.385 0.004c-25.402 0.34-45.718 21.211-45.381 46.615 0.34 25.393 21.209 45.715 46.611 45.377 25.398-0.342 45.719-21.213 45.381-46.615-0.34-25.395-21.211-45.716-46.611-45.377zm5.099 15.329c4.676 0 6.057 2.714 6.057 5.815 0 3.877-3.104 7.461-8.396 7.461-4.43 0-6.537-2.229-6.414-5.91 0-3.102 2.599-7.366 8.753-7.366zm-11.987 59.417c-3.195 0-5.537-1.938-3.301-10.467l3.666-15.125c0.637-2.424 0.744-3.393 0-3.393-0.959 0-5.107 1.674-7.557 3.322l-1.598-2.617c7.773-6.491 16.712-10.299 20.544-10.299 3.195 0 3.727 3.779 2.131 9.594l-4.199 15.9c-0.744 2.811-0.424 3.779 0.318 3.779 0.961 0 4.102-1.166 7.188-3.59l1.811 2.424c-7.561 7.56-15.81 10.472-19.003 10.472z" fill="#010101"/></svg><svg xmlns:xlink="http://www.w3.org/1999/xlink" id="alert-question" xml:space="preserve" height="92" viewBox="0 0 91.999 92" width="92" version="1.1" y="92" x="0px" enable-background="new 0 0 91.999 92"><path d="m45.385 0.004c-25.403 0.34-45.719 21.211-45.381 46.615 0.34 25.393 21.209 45.715 46.611 45.377 25.398-0.342 45.718-21.213 45.38-46.615-0.34-25.395-21.21-45.716-46.61-45.377zm-0.136 73.996l-0.254-0.004c-3.912-0.116-6.67-2.998-6.559-6.852 0.109-3.788 2.934-6.538 6.717-6.538l0.227 0.004c4.021 0.119 6.748 2.972 6.635 6.937-0.112 3.799-2.893 6.453-6.766 6.453zm16.455-32.659c-0.92 1.307-2.943 2.93-5.492 4.916l-2.807 1.938c-1.541 1.198-2.471 2.325-2.82 3.434-0.275 0.873-0.41 1.104-0.434 2.88l-0.004 0.451h-10.718l0.031-0.907c0.131-3.728 0.223-5.921 1.768-7.733 2.424-2.846 7.771-6.289 7.998-6.435 0.766-0.577 1.412-1.234 1.893-1.936 1.125-1.551 1.623-2.772 1.623-3.972 0-1.665-0.494-3.205-1.471-4.576-0.939-1.323-2.723-1.993-5.303-1.993-2.559 0-4.311 0.812-5.359 2.478-1.078 1.713-1.623 3.512-1.623 5.35v0.457h-11.051l0.02-0.477c0.285-6.769 2.701-11.643 7.178-14.487 2.813-1.811 6.313-2.729 10.397-2.729 5.346 0 9.859 1.299 13.412 3.861 3.6 2.596 5.426 6.484 5.426 11.556 0 2.837-0.896 5.502-2.664 7.924z" fill="#010101"/></svg><svg xmlns:xlink="http://www.w3.org/1999/xlink" id="alert-warning" xml:space="preserve" height="85" viewBox="0 0 96.001 85" width="96" version="1.1" y="184" x="0px" enable-background="new 0 0 96.001 85">	<path d="m95.557 79.904l-44.537-78.161c-0.614-1.077-1.768-1.743-3.02-1.743s-2.406 0.666-3.02 1.743l-44.533 78.161c-0.605 1.059-0.596 2.354 0.027 3.402 0.622 1.049 1.76 1.694 2.991 1.694h89.072c1.229 0 2.367-0.645 2.99-1.693 0.621-1.049 0.631-2.344 0.03-3.403zm-42.057-4.904h-11v-10h11v10zm0-17.502h-11v-30h11v30z" fill="#010101"/></svg><svg xmlns:xlink="http://www.w3.org/1999/xlink" id="arrow-line-down" xml:space="preserve" height="26" viewBox="0 0 45.999 26.001" width="46" version="1.1" y="269" x="0px" enable-background="new 0 0 45.999 26.001"><path d="m40.094 1.003c1.352-1.338 3.541-1.338 4.893 0 1.35 1.337 1.352 3.506 0 4.845l-19.54 19.15c-1.352 1.338-3.543 1.338-4.895 0l-19.538-19.15c-1.352-1.339-1.352-3.506 0-4.845 1.352-1.338 3.541-1.338 4.893-0.001l17.093 15.705 17.094-15.704z" fill="#010101"/></svg><svg xmlns:xlink="http://www.w3.org/1999/xlink" id="arrow-line-left" xml:space="preserve" height="46" viewBox="0 0 26.001 45.999" width="26" version="1.1" y="295" x="0px" enable-background="new 0 0 26.001 45.999"><path d="m24.998 40.094c1.338 1.352 1.338 3.541 0 4.893-1.338 1.35-3.506 1.352-4.846 0l-19.149-19.54c-1.338-1.352-1.338-3.543 0-4.895l19.149-19.538c1.34-1.352 3.506-1.352 4.846 0 1.338 1.352 1.338 3.541 0 4.893l-15.704 17.093 15.704 17.094z" fill="#010101"/></svg><svg xmlns:xlink="http://www.w3.org/1999/xlink" id="arrow-line-right" xml:space="preserve" height="46" viewBox="0 0 26.002 45.999" width="26" version="1.1" y="341" x="0px" enable-background="new 0 0 26.002 45.999"><path d="m1.004 40.094c-1.338 1.352-1.338 3.541 0 4.893 1.336 1.35 3.506 1.352 4.844 0l19.15-19.539c1.338-1.352 1.338-3.543 0-4.895l-19.15-19.539c-1.338-1.352-3.506-1.352-4.844 0s-1.338 3.541-0.002 4.893l15.705 17.093-15.703 17.094z" fill="#010101"/></svg><svg xmlns:xlink="http://www.w3.org/1999/xlink" id="arrow-line-up" xml:space="preserve" height="26" viewBox="0 0 45.999 26.001" width="46" version="1.1" y="387" x="0px" enable-background="new 0 0 45.999 26.001"><path d="m5.905 24.998c-1.352 1.338-3.541 1.338-4.893 0-1.35-1.338-1.352-3.506 0-4.846l19.54-19.149c1.352-1.338 3.543-1.338 4.895 0l19.539 19.148c1.352 1.34 1.352 3.506 0 4.846-1.352 1.338-3.541 1.338-4.893 0l-17.094-15.703-17.094 15.704z" fill="#010101"/></svg><svg xmlns:xlink="http://www.w3.org/1999/xlink" id="arrow-solid-down" xml:space="preserve" height="23" viewBox="0.031 0.805 46 23" width="46" version="1.1" y="413" x="0px" enable-background="new 0.031 0.805 46 23"><g enable-background="new    ">	<path d="m0.031 0.805h46l-23 23-23-23z"/></g></svg><svg xmlns:xlink="http://www.w3.org/1999/xlink" id="arrow-solid-left" xml:space="preserve" height="46" viewBox="2.198 0.004 23 46" width="23" version="1.1" y="436" x="0px" enable-background="new 2.198 0.004 23 46"><g enable-background="new    ">	<path d="m25.198 0.004v46l-23-23 23-23z"/></g></svg><svg xmlns:xlink="http://www.w3.org/1999/xlink" id="arrow-solid-right" xml:space="preserve" height="46" viewBox="0.806 0.002 23 46" width="23" version="1.1" y="482" x="0px" enable-background="new 0.806 0.002 23 46"><g enable-background="new    ">	<path d="m0.806 46.002v-46l23 22.999-23 23.001z"/></g></svg><svg xmlns:xlink="http://www.w3.org/1999/xlink" id="arrow-solid-up" xml:space="preserve" height="23" viewBox="0 1.5 46 23" width="46" version="1.1" y="528" x="0px" enable-background="new 0 1.5 46 23"><g enable-background="new    ">	<path d="m46 24.5h-46l23-23 23 23z"/></g></svg><svg xmlns:xlink="http://www.w3.org/1999/xlink" id="cancel-circle" xml:space="preserve" height="84" viewBox="0 0 84 84" width="84" version="1.1" y="551" x="0px" enable-background="new 0 0 84 84">	<path d="m42 0c-23.197 0-42 18.807-42 42 0 23.197 18.803 42 42 42 23.193 0 42-18.803 42-42 0-23.193-18.807-42-42-42zm8.643 42l15.303 15.302-8.643 8.642-15.301-15.301-15.303 15.301-8.641-8.642 15.301-15.302-15.3-15.298 8.641-8.646 15.3 15.301 15.301-15.299 8.643 8.641-15.301 15.301z" fill="#010101"/></svg><svg xmlns:xlink="http://www.w3.org/1999/xlink" id="cancel" xml:space="preserve" height="52" viewBox="0 0 47 52" width="47" version="1.1" y="635" x="0px" enable-background="new 0 0 47 52">	<path d="m45.244 41.757l-13.788-15.757 13.788-15.758c2.343-2.344 2.343-6.143 0-8.486-2.345-2.343-6.144-2.342-8.486 0.001l-13.258 15.152-13.256-15.152c-2.343-2.342-6.142-2.343-8.487-0.001-2.343 2.344-2.343 6.143 0 8.486l13.788 15.758-13.788 15.757c-2.343 2.343-2.343 6.142-0.001 8.485 2.344 2.344 6.143 2.344 8.487 0l13.257-15.152 13.257 15.152c2.345 2.344 6.144 2.344 8.487 0 2.342-2.343 2.342-6.142 0-8.485z" fill="#010101"/></svg><svg xmlns:xlink="http://www.w3.org/1999/xlink" id="checkmark" xml:space="preserve" height="70" viewBox="0 0 66.728 70" width="67" version="1.1" y="687" x="0px" enable-background="new 0 0 66.728 70">		<path d="m24.839 70c-2.176 0-4.234-1.018-5.557-2.764l-17.868-23.597c-2.324-3.069-1.719-7.439 1.35-9.764 3.074-2.326 7.441-1.717 9.766 1.35l11.752 15.518 29.557-47.458c2.035-3.265 6.332-4.264 9.604-2.232 3.268 2.034 4.266 6.334 2.23 9.602l-34.916 56.06c-1.213 1.949-3.307 3.175-5.6 3.279-0.107 0.004-0.212 0.006-0.318 0.006z" fill="#010101"/></svg><svg xmlns:xlink="http://www.w3.org/1999/xlink" id="email" xml:space="preserve" height="58" viewBox="0 0 90 58" width="90" version="1.1" y="757" x="0px" enable-background="new 0 0 90 58">	<path d="m2.97 5.428c2.441 1.312 36.241 19.468 37.499 20.144 1.259 0.676 2.889 1.002 4.531 1.002s3.273-0.326 4.531-1.002 35.059-18.832 37.5-20.144c2.441-1.311 4.754-5.428 0.265-5.428h-84.593c-4.484 0-2.176 4.117 0.267 5.428zm85.094 10c-2.773 1.447-36.834 19.258-38.533 20.144-1.699 0.888-2.889 1.003-4.531 1.003-1.643 0-2.832-0.115-4.531-1.003-1.698-0.885-35.758-18.697-38.533-20.144-1.953-1.017-1.936 0.176-1.936 1.098s0 36.679 0 36.679c0 2.096 2.792 4.795 4.959 4.795h80.082c2.167 0 4.959-2.699 4.959-4.795v-36.679s0.019-2.115-1.936-1.098z" fill="#010101"/></svg><svg xmlns:xlink="http://www.w3.org/1999/xlink" id="ext-link-01" xml:space="preserve" height="78" viewBox="0 0 100 78" width="100" version="1.1" y="815" x="0px" enable-background="new 0 0 100 78">	<path d="m75 68h-65v-45h12.975s3.447-4.484 10.85-10h-28.825c-2.762 0-5 2.238-5 5v55c0 2.762 2.238 5 5 5h75c2.762 0 5-2.238 5-5v-18.732l-10 8.226v5.506zm-8.19-34.75v17.75l33.19-26.003-33.19-24.997v15.652c-40.31 0-40.31 39.848-40.31 39.848 11.408-18.741 18.43-22.25 40.31-22.25z" fill="#010101"/></svg><svg xmlns:xlink="http://www.w3.org/1999/xlink" id="ext-link-02" xml:space="preserve" height="90" viewBox="0 0 90 90" width="90" version="1.1" y="893" x="0px" enable-background="new 0 0 90 90"><path d="m50.099 80h-40.199v-70h40.199v15h9.901v-15c0-5.5-4.5-10-10-10h-40c-5.5 0-10 4.5-10 10v70c0 5.5 4.5 10 10 10h40c5.5 0 10-4.5 10-10v-10h-9.9v10zm39.901-32.5l-19.901-19.5v12h-44.999v15h44.999v12l19.901-19.5z" fill="#010101"/></svg><svg xmlns:xlink="http://www.w3.org/1999/xlink" id="ext-link-03" xml:space="preserve" height="80" viewBox="77.549 822.018 80 80" width="80" version="1.1" y="983" x="0px" enable-background="new 77.549 822.018 80 80"><path d="m144.22 888.68h-53.338v-53.13l13.333-0.198v-13.334h-26.671v80h80v-33.334h-13.333v19.99zm-26.67-66.66l13.333 13.334-20 19.999 13.333 13.333 20-19.999 13.333 13.333v-40h-39.99z"/></svg><svg xmlns:xlink="http://www.w3.org/1999/xlink" id="file-excel-outline" xml:space="preserve" height="96" viewBox="-35 -33.428 100 95.508" width="100" version="1.1" y="1063" x="0px" enable-background="new -35 -33.428 100 95.508"><path d="m42.817 39.523h-16.878l-11.478-16.22-12.064 16.22h-16.934l20.993-26.374-16.944-23.09h17.088l7.918 12.549 8.484-12.549h17.383l-17.77 23.091 20.202 26.373m22.183 22.557h-100v-95.508h100v95.508zm-90.385-9.582h80.73v-76.309h-80.73" fill="#08743B"/></svg><svg xmlns:xlink="http://www.w3.org/1999/xlink" id="file-excel" xml:space="preserve" height="96" viewBox="-35 -33.428 100 95.508" width="100" version="1.1" y="1159" x="0px" enable-background="new -35 -33.428 100 95.508">	<polyline points="65 62.08 -35 62.08 -35 -33.428 65 -33.428 65 62.08" fill="#08743B"/>	<polyline points="42.37 39.144 25.618 39.144 14.186 22.979 2.179 39.144 -14.634 39.144 6.237 12.889 -10.624 -10.072 6.377 -10.072 14.269 2.412 22.673 -10.072 39.961 -10.072 22.298 12.889 42.37 39.144" fill="#fff"/></svg><svg xmlns:xlink="http://www.w3.org/1999/xlink" id="file-pdf-outline" xml:space="preserve" height="96" viewBox="-34.992 -33.42 100 95.507" width="100" version="1.1" y="1255" x="0px" enable-background="new -34.992 -33.42 100 95.507">	<path d="m65.008 62.087h-100v-95.507h100v95.507m-90.393-9.608h80.771v-76.285h-80.771" fill="#EA4C3A"/>	<path stroke-linejoin="round" d="m16.317-18.733c1.404 0.608 1.092 1.532 0.626 5.869-0.476 4.494-2.057 12.68-5.112 20.717-3.058 8.044-7.597 15.94-11.551 21.794-3.948 5.85-7.332 9.649-9.909 11.843-2.588 2.192-4.377 2.771-5.545 2.974-1.16 0.201-1.687 0-2-0.583-0.314-0.582-0.423-1.564-0.155-2.729 0.264-1.175 0.894-2.541 2.68-4.288 1.802-1.757 4.751-3.897 8.866-5.901 4.114-1.998 9.381-3.853 13.708-5.115 4.329-1.269 7.699-1.948 10.652-2.482 2.957-0.536 5.488-0.927 7.961-1.119 2.482-0.198 4.913-0.198 7.281 0 2.375 0.192 4.698 0.583 6.702 1.064 2.005 0.487 3.689 1.073 5.167 2.004 1.474 0.924 2.743 2.192 3.37 3.604 0.642 1.416 0.642 2.974 0.111 4.094-0.527 1.119-1.585 1.809-2.795 2.192-1.207 0.387-2.58 0.484-4.217 0-1.637-0.488-3.543-1.559-5.541-2.977-1.997-1.409-4.112-3.159-6.852-5.893-2.746-2.729-6.123-6.441-8.967-10.044-2.844-3.608-5.175-7.115-6.757-10.087-1.575-2.976-2.42-5.411-3.107-7.853-0.685-2.435-1.212-4.871-1.422-7.064-0.21-2.199-0.109-4.148 0.104-5.697 0.21-1.566 0.532-2.733 1.056-3.512 0.525-0.782 1.269-1.173 1.796-1.365 0.525-0.2 0.846-0.2 1.158-0.244 0.314-0.045 0.626-0.146 1.109 0 0.461 0.134 1.075 0.506 1.583 0.798z" stroke="#EA4C3A" stroke-miterlimit="10" stroke-width="1.57" fill="none"/></svg><svg xmlns:xlink="http://www.w3.org/1999/xlink" id="file-pdf" xml:space="preserve" height="96" viewBox="-34.991 -33.417 100 95.501" width="100" version="1.1" y="1351" x="0px" enable-background="new -34.991 -33.417 100 95.501"><polyline points="65.009 62.084 -34.991 62.084 -34.991 -33.417 65.009 -33.417 65.009 62.084" fill="#EA4C3A"/><path stroke-linejoin="round" d="m16.219-18.835c1.507 0.709 1.194 1.63 0.729 5.973-0.472 4.481-2.058 12.666-5.113 20.718-3.058 8.038-7.596 15.936-11.551 21.783-3.951 5.85-7.331 9.652-9.911 11.849-2.588 2.192-4.377 2.778-5.545 2.974-1.16 0.195-1.687 0-2-0.589-0.314-0.589-0.423-1.552-0.153-2.733 0.262-1.164 0.892-2.53 2.678-4.281 1.802-1.753 4.751-3.903 8.865-5.897 4.114-1.998 9.384-3.853 13.711-5.121 4.329-1.263 7.699-1.949 10.651-2.485 2.957-0.54 5.488-0.924 7.967-1.123 2.477-0.185 4.906-0.185 7.281 0 2.372 0.199 4.691 0.583 6.698 1.077 2.001 0.484 3.692 1.067 5.17 2.001 1.471 0.921 2.739 2.189 3.37 3.607 0.638 1.409 0.638 2.974 0.11 4.093-0.526 1.119-1.587 1.803-2.797 2.199-1.211 0.381-2.584 0.479-4.22 0-1.634-0.494-3.536-1.567-5.537-2.979-2.001-1.415-4.116-3.172-6.855-5.901-2.742-2.727-6.122-6.429-8.966-10.037-2.843-3.607-5.174-7.115-6.755-10.09-1.576-2.975-2.422-5.41-3.108-7.845-0.687-2.442-1.213-4.877-1.423-7.069-0.21-2.193-0.112-4.148 0.101-5.709 0.21-1.554 0.532-2.733 1.056-3.516 0.527-0.766 1.269-1.166 1.795-1.36 0.525-0.192 0.846-0.192 1.16-0.242 0.312-0.05 0.626-0.146 1.107 0 0.46 0.14 1.07 0.512 1.681 0.893" stroke="#fff" stroke-miterlimit="10" stroke-width="1.4" fill="none"/></svg><svg xmlns:xlink="http://www.w3.org/1999/xlink" id="file-powerpoint-outline" xml:space="preserve" height="96" viewBox="-35 -33.428 100 95.508" width="100" version="1.1" y="1447" x="0px" enable-background="new -35 -33.428 100 95.508"><path d="m22.695 9.629c0-1.784-0.554-3.203-1.647-4.277-1.1-1.063-2.975-1.595-5.625-1.595h-4.403v11.922h4.374c2.841 0 4.789-0.589 5.843-1.763 0.97-1.053 1.458-2.48 1.458-4.287m11.667-0.121c0 3.944-0.99 7.201-2.979 9.779-2.568 3.34-6.83 5.007-12.793 5.007h-7.57v15.24h-11.681v-44.392h19.046c5.416 0 9.527 1.504 12.337 4.507 2.423 2.569 3.64 5.86 3.64 9.859zm30.638 52.572h-100v-95.508h100v95.508zm-90.391-9.609h80.774v-76.289h-80.774" fill="#DD5B26"/></svg><svg xmlns:xlink="http://www.w3.org/1999/xlink" id="file-powerpoint" xml:space="preserve" height="96" viewBox="-34.948 -33.377 100 95.504" width="100" version="1.1" y="1543" x="0px" enable-background="new -34.948 -33.377 100 95.504">	<polyline points="65.052 62.127 -34.948 62.127 -34.948 -33.377 65.052 -33.377 65.052 62.127" fill="#DD5B26"/>	<path d="m22.73 9.681c0-1.781-0.542-3.215-1.639-4.276-1.103-1.069-2.975-1.601-5.613-1.601h-4.412v11.923h4.378c2.835 0 4.788-0.592 5.846-1.758 0.967-1.055 1.44-2.485 1.44-4.288m11.682-0.12c0 3.937-0.996 7.192-2.975 9.771-2.566 3.338-6.835 5.009-12.805 5.009h-7.569v15.23h-11.673v-44.38h19.046c5.407 0 9.518 1.504 12.337 4.504 2.429 2.572 3.639 5.86 3.639 9.866z" fill="#fff"/></svg><svg xmlns:xlink="http://www.w3.org/1999/xlink" id="file-word-outline" xml:space="preserve" height="96" viewBox="-35 -33.43 100 95.514" width="100" version="1.1" y="1639" x="0px" enable-background="new -35 -33.43 100 95.514"><path d="m49.375-4.853l-14.626 44.385h-12.135l-8.345-25.726-8.75 25.726h-12.102l-13.646-44.385h12.43l7.949 28.679 9.694-28.679h9.446l9.021 28.679 8.655-28.679h12.409m15.625 66.937h-100v-95.514h100v95.514zm-90.391-9.609h80.774v-76.289h-80.774" fill="#2372BA"/></svg><svg width="100" height="96" viewBox="-35 -33.425 100 95.501" enable-background="new -35 -33.425 100 95.501" id="file-word" y="1735"><path fill="#2372BA" d="M65 62.076h-100v-95.501h100v95.501m-90.394-9.609h80.778v-76.286h-80.778"/><polyline fill="#2372BA" points="-27.681,-28.279 60.931,-28.279 60.931,55.409 -27.681,55.409 -27.681,-28.279"/><polyline fill="#fff" points="49.368,-4.856 34.746,39.523 22.61,39.523 14.274,13.808 5.516,39.523 -6.587,39.523 -20.229,-4.856 -7.796,-4.856 0.15,23.82 9.837,-4.856 19.29,-4.856 28.311,23.82 36.956,-4.856 49.368,-4.856"/></svg><svg xmlns:xlink="http://www.w3.org/1999/xlink" id="gear" xml:space="preserve" height="84" viewBox="0 0 84 84" width="84" version="1.1" y="1831" x="0px" enable-background="new 0 0 84 84">	<path d="m75.921 42c0-5.237 3.223-9.372 8.078-12.213-0.873-2.923-2.033-5.723-3.459-8.36-5.443 1.425-9.85-0.708-13.555-4.412-3.703-3.704-4.838-8.112-3.412-13.555-2.636-1.427-5.435-2.586-8.361-3.46-2.841 4.856-7.974 8.079-13.212 8.079-5.237 0-10.37-3.223-13.213-8.079-2.923 0.873-5.723 2.033-8.359 3.458 1.424 5.444 0.291 9.852-3.413 13.557-3.704 3.704-8.112 5.837-13.556 4.414-1.426 2.634-2.585 5.434-3.459 8.358 4.855 2.841 8.079 6.976 8.079 12.213s-3.224 10.371-8.079 13.212c0.874 2.925 2.033 5.725 3.459 8.361 5.444-1.425 9.852-0.291 13.556 3.413 3.703 3.704 4.837 8.111 3.413 13.556 2.636 1.425 5.436 2.586 8.36 3.458 2.843-4.854 7.975-8.079 13.212-8.079 5.238 0 10.371 3.225 13.212 8.079 2.926-0.874 5.725-2.033 8.361-3.46-1.424-5.442-0.291-9.85 3.412-13.554 3.705-3.704 8.111-5.838 13.555-4.413 1.426-2.637 2.586-5.437 3.459-8.361-4.855-2.841-8.078-6.975-8.078-12.212zm-33.921 18.266c-10.087 0-18.265-8.179-18.265-18.266 0-10.088 8.177-18.266 18.265-18.266s18.265 8.178 18.265 18.266c0 10.087-8.178 18.266-18.265 18.266z" fill="#010101"/></svg><svg xmlns:xlink="http://www.w3.org/1999/xlink" id="home" xml:space="preserve" height="80" viewBox="0 0 89.999 80.499" width="90" version="1.1" y="1915" x="0px" enable-background="new 0 0 89.999 80.499">	<path d="m88.849 41.752l-40.12-40.157c-2.053-2.127-5.408-2.127-7.459 0l-40.119 40.157c-2.051 2.127-1.286 3.868 1.702 3.868h8.362v30.841c0 2.23 0.096 4.038 4.122 4.038h19.473v-30.929h20.379v30.929h20.443c3.07 0 3.152-1.808 3.152-4.038v-30.841h8.363c2.987 0 3.752-1.741 1.702-3.868z" fill="#010101"/></svg><svg xmlns:xlink="http://www.w3.org/1999/xlink" id="logo-ig-e" xml:space="preserve" height="68" viewBox="0 0 240.646 67.949" width="241" version="1.1" y="1995" x="0px" enable-background="new 0 0 240.646 67.949">	<g fill="#231F20">		<path d="m98.165 30.163h-11.406c-0.395 0-0.673-0.133-0.626-0.355 0.057-0.267 0.411-0.488 0.815-0.533l1.855-0.266c0.818-0.133 1.637-0.888 1.873-1.998l2.215-10.209 2.108-10.12c0.236-1.109-0.261-1.864-1.023-1.997l-1.742-0.267c-0.385-0.044-0.645-0.266-0.598-0.488 0.057-0.266 0.392-0.399 0.787-0.399h11.406c0.395 0 0.674 0.133 0.626 0.355-0.057 0.267-0.411 0.488-0.815 0.533l-1.855 0.267c-0.818 0.133-1.637 0.888-1.872 1.997l-2.196 10.12-2.127 10.209c-0.236 1.11 0.262 1.864 1.022 1.998l1.742 0.266c0.386 0.044 0.646 0.266 0.598 0.488-0.051 0.266-0.387 0.399-0.782 0.399z"/>		<path d="m121.37 30.163h-7.37c-0.395 0-0.541-0.133-0.494-0.355 0.057-0.267 0.383-0.355 0.702-0.622 0.373-0.311 0.725-0.932 1.008-2.264l2.02-9.499c0.547-2.574-0.178-3.906-2.152-3.906-1.668 0-4.373 1.376-4.816 3.462l-2.133 10.031c-0.236 1.11 0.192 1.775 0.935 1.998l0.864 0.266c0.332 0.089 0.646 0.266 0.599 0.488-0.057 0.266-0.392 0.399-0.787 0.399h-8.993c-0.395 0-0.674-0.133-0.626-0.355 0.057-0.267 0.392-0.399 0.815-0.533l0.978-0.266c0.837-0.222 1.593-0.888 1.829-1.998l2.633-12.384c0.236-1.11-0.227-1.82-1.032-1.953l-1.742-0.267c-0.341-0.044-0.654-0.222-0.598-0.488s0.392-0.399 0.787-0.399h6.449c0.352 0 0.532 0.178 0.598 0.488l0.275 0.977c0.05 0.177 0.216 0.222 0.43 0.044 1.433-1.376 3.441-1.953 5.285-1.953 3.641 0 5.701 2.486 4.729 7.057l-1.889 8.877c-0.236 1.11 0.281 1.775 1.023 1.998l0.908 0.266c0.322 0.133 0.602 0.266 0.555 0.488-0.06 0.27-0.39 0.403-0.79 0.403z"/>		<path d="m143.3 12.453c-0.486 0.222-0.99 0.533-1.387 1.154l-10.541 16.556c-0.188 0.267-0.795 0.444-1.408 0.444-0.527 0-1.104-0.177-1.145-0.399l-3.654-16.645c-0.105-0.533-0.523-0.844-0.986-0.933l-1.006-0.222c-0.332-0.089-0.654-0.222-0.588-0.533 0.047-0.222 0.383-0.355 0.777-0.355h8.904c0.395 0 0.684 0.089 0.627 0.355-0.066 0.311-0.393 0.399-0.816 0.533l-1.205 0.311c-0.467 0.133-0.666 0.444-0.75 0.844-0.047 0.222-0.061 0.488-0.01 0.666l1.602 10.208c0.041 0.222 0.391 0.222 0.525 0l6.033-10.208c0.125-0.178 0.225-0.444 0.271-0.666 0.086-0.4 0.02-0.71-0.391-0.844l-1.162-0.311c-0.375-0.089-0.654-0.222-0.588-0.533 0.057-0.266 0.383-0.355 0.777-0.355h6.186c0.395 0 0.674 0.133 0.625 0.355-0.05 0.267-0.34 0.4-0.68 0.578z"/>		<path d="m156.8 20.753h-9.607c-0.482 0-1.006 0.399-1.109 0.888-0.967 4.749 0.793 6.791 3.248 6.791 1.975 0 4.174-1.465 5.27-2.708 0.17-0.178 0.303-0.178 0.414-0.089l0.727 0.71c0.104 0.133 0.084 0.222 0.014 0.355-1.666 2.264-4.779 3.906-7.762 3.906-3.992 0-7.883-2.752-6.371-9.854 1.236-5.814 5.873-9.676 10.654-9.676 3.816 0 7.08 2.397 5.816 8.344-0.12 0.579-0.72 1.333-1.29 1.333zm-4.87-8.034c-2.15 0-4.027 2.22-5.061 5.637-0.146 0.488 0.016 0.754 0.498 0.754 0 0 1.307 0.044 2.271 0.044h0.922c0.832 0 1.412-0.044 1.934-0.222 0.881-0.222 1.238-0.666 1.389-1.376 0.58-2.706-0.02-4.837-1.95-4.837z"/>		<path d="m165.1 30.607c-2.412 0-5.404-0.577-6.479-0.888-0.289-0.089-0.471-0.266-0.449-0.577 0.1-0.666 0.271-1.687 0.354-2.485 0.117-0.755 0.236-1.731 0.281-2.353 0.014-0.267 0.201-0.533 0.508-0.533 0.264 0 0.479 0.222 0.467 0.488 0.488 3.684 2.195 4.527 5.793 4.527 1.623 0 3.908-0.843 4.314-2.752 0.99-4.661-10.455-2.619-8.943-9.72 0.707-3.329 3.262-5.238 7.736-5.238 2.326 0 6.424 0.533 6.424 0.533 0.264 0 0.391 0.222 0.344 0.444l-0.902 4.661c-0.039 0.177-0.201 0.532-0.465 0.532-0.176 0-0.312-0.177-0.354-0.399-0.389-3.329-1.949-4.039-5.238-4.039-1.932 0-3.582 0.755-3.961 2.53-0.811 3.817 10.725 2.175 9.139 9.632-0.99 4.66-4.84 5.637-8.57 5.637z"/>		<path d="m187.48 29.32c-1.107 0.666-2.736 1.11-4.623 1.11-3.553 0-5.6-1.11-4.977-4.04l2.682-12.605h-3.46c-0.221 0-0.402-0.178-0.354-0.399l0.301-1.42c0.057-0.266 0.27-0.444 0.533-0.444h2.809c0.438 0 0.924-0.222 1.488-1.021l3.621-5.06c0.188-0.266 0.488-0.444 0.752-0.444s0.533 0.178 0.447 0.577l-1.264 5.948h5c0.307 0 0.42 0.089 0.363 0.355l-0.35 1.642c-0.057 0.267-0.252 0.355-0.471 0.355l-5.025-0.089-2.482 11.673c-0.426 1.998-0.367 3.374 1.959 3.374 0.922 0 2.068-0.444 2.66-0.754 0.195-0.089 0.379-0.133 0.43 0.044l0.129 0.843c0.04 0.177 0.02 0.266-0.18 0.355z"/>		<path d="m196.25 30.607c-5.703 0-7.818-4.705-6.732-9.81 1.086-5.104 5.225-9.72 10.885-9.72 5.703 0 7.836 4.616 6.75 9.72-1.09 5.105-5.2 9.81-10.9 9.81zm3.64-17.532c-3.555 0-4.98 3.817-5.688 7.146-0.709 3.329-1.227 8.655 2.547 8.655 3.553 0 5.029-4.261 5.709-7.457 0.72-3.418 1.24-8.344-2.57-8.344z"/>		<path d="m224.09 16.004c-0.129 0.399-0.283 0.71-0.678 0.71-0.439 0-0.318-0.977-0.365-1.376-0.055-0.977-0.738-1.687-2.098-1.687-1.535 0-3.059 0.977-4.061 2.175-0.41 0.488-0.799 1.287-0.932 1.908l-1.973 9.277c-0.236 1.11 0.279 1.775 1.023 1.998l0.863 0.266c0.367 0.133 0.646 0.266 0.6 0.488-0.059 0.266-0.393 0.399-0.787 0.399h-9.082c-0.395 0-0.674-0.133-0.625-0.355 0.057-0.267 0.393-0.399 0.814-0.533l0.979-0.266c0.836-0.222 1.592-0.888 1.828-1.998l2.633-12.384c0.236-1.11-0.27-1.82-1.031-1.953l-1.305-0.267c-0.375-0.089-0.645-0.267-0.598-0.488 0.057-0.267 0.393-0.399 0.787-0.399h5.615c0.395 0 0.566 0.222 0.588 0.533l0.184 1.82c0.041 0.222 0.285 0.311 0.508 0.089 1.74-1.998 3.992-2.885 6.449-2.885 0.438 0 1.068 0.133 1.434 0.266 0.244 0.089 0.68 0.311 0.561 0.666l-1.31 3.996z"/>		<path d="m230.29 30.607c-2.414 0-5.404-0.577-6.48-0.888-0.287-0.089-0.469-0.266-0.447-0.577 0.098-0.666 0.271-1.687 0.354-2.485 0.117-0.755 0.236-1.731 0.281-2.353 0.012-0.267 0.201-0.533 0.508-0.533 0.264 0 0.479 0.222 0.467 0.488 0.488 3.684 2.195 4.527 5.791 4.527 1.625 0 3.91-0.843 4.314-2.752 0.992-4.661-10.453-2.619-8.943-9.72 0.709-3.329 3.264-5.238 7.738-5.238 2.326 0 6.424 0.533 6.424 0.533 0.262 0 0.391 0.222 0.344 0.444l-0.904 4.661c-0.037 0.177-0.199 0.532-0.463 0.532-0.176 0-0.314-0.177-0.354-0.399-0.391-3.329-1.949-4.039-5.24-4.039-1.93 0-3.582 0.755-3.959 2.53-0.812 3.817 10.725 2.175 9.139 9.632-1 4.66-4.84 5.637-8.57 5.637z"/>	</g>		<path stroke="#fff" stroke-width="1.8425" d="m72.719 61.962c-0.544 2.798-3.253 5.065-6.05 5.065h-61.571c-2.797 0-4.625-2.268-4.081-5.065l10.88-55.976c0.543-2.797 3.252-5.065 6.05-5.065h61.572c2.797 0 4.624 2.268 4.081 5.065l-10.881 55.976z" fill="#004270"/>			<path d="m71.522 18.394c-0.925-1.09-2.386-1.716-4.002-1.716h-14.837l1.625-7.856h-34.325l-1.956 9.561h7.059c0.577 0 1.637 0 2.188 0.644 0.104 0.126 0.361 0.42 0.399 1.153 0.019 0.335-0.014 0.76-0.122 1.301-0.001 0.002-4.658 22.705-4.949 24.123-0.724 2.651-2.081 3.778-4.524 3.778h-6.433l-2.002 9.748h34.313l1.649-8.053h3.266c1.791 0 3.759-0.101 5.487-0.574-0.058 0.303-0.141 0.604-0.141 0.604l2.225-0.003h9.99l4.135-19.766h-17.654l-1.49 7.988h5.265c-0.102 0.491-0.202 0.996-0.276 1.429-0.38 1.783-1.271 2.604-2.959 2.741h-6.134c-0.031-0.004-0.051-0.004-0.076-0.004-0.001-0.109 0.012-0.243 0.052-0.454 0 0 3.612-17.346 3.692-17.745 0.197-0.856 0.368-1.168 0.434-1.264 0.137-0.019 0.431-0.017 0.659-0.017l0.236 0.003h7.423s0.035-0.005 0.058-0.005c-0.007 0.022-0.015 0.049-0.015 0.049l-0.013 0.111c-0.037 0.332-0.265 1.476-0.414 2.178l-0.456 2.124h12.234l0.269-1.28c0.032-0.137 0.731-3.435 1.035-5.108l-0.007 0.04c0.297-1.375-0.027-2.698-0.908-3.73z" fill="#fff"/>			<path d="m38.32 51.076c-2.269 0-5.155-0.918-4.27-5.21 0 0 4.975-24.204 4.971-24.19 0.958-3.731 3.092-4.999 6.139-4.999h5.722l1.276-6.154h-30.715l-1.259 6.157h4.815c0.748 0 2.492 0 3.598 1.297 0.805 0.938 1.024 2.217 0.675 3.914l-4.964 24.19c-0.82 3.039-2.617 5.002-6.143 5.002h-5.057l-1.307 6.344h30.7l1.309-6.352h-5.49z" fill="#004270"/>			<path fill="#004270" clip-rule="evenodd" d="m38.21 49.377c-1.532 0-3.049-0.262-2.464-3.103l4.967-24.203c0.503-2.576 2.263-3.694 4.509-3.694h22.383c2.082 0 3.513 1.418 3.109 3.324-0.308 1.678-1.029 5.07-1.029 5.07h-8.616s0.381-1.773 0.445-2.335c0.426-1.677-0.554-2.238-1.933-2.124h-7.351c-1.5 0-2.351-0.151-2.958 2.549l-3.689 17.761c-0.248 1.178-0.124 2.46 1.74 2.574h6.31c2.992-0.227 4.093-2.129 4.501-4.033 0.22-1.34 0.731-3.537 0.731-3.537h-5.327l0.851-4.59h14.019l-3.427 16.343h-8.625s0.4-1.907 0.56-2.689c-0.88 1.79-3.343 2.688-8.134 2.688h-10.572z" fill-rule="evenodd"/>	<g fill="#231F20">		<path d="m106.64 47.287l-1.426 0.311c-0.828 0.178-1.637 0.888-1.873 1.997l-1.728 8.123c-0.094 0.444-0.11 0.933 0.096 1.198 0.113 0.089 0.172 0.223 0.134 0.4-0.066 0.311-0.26 0.398-0.479 0.398-0.176 0-0.42-0.088-0.542-0.133l-2.729-1.198c-0.357-0.178-0.664-0.178-1.027 0.089-1.126 0.754-3.407 1.376-5.206 1.376-6.756 0-11.076-4.438-9.084-13.805 1.784-8.389 7.786-13.715 14.366-13.715 2.632 0 5.345 0.444 7.764 0.622 0.263 0 0.451 0.355 0.404 0.577l-1.492 7.013c-0.084 0.399-0.395 0.622-0.57 0.622-0.22 0-0.401-0.178-0.423-0.488-0.118-4.395-1.799-6.392-6.011-6.392-5.747 0-7.941 8.255-8.828 12.428-0.954 4.483-1.088 11.097 4.483 11.097 2.106 0 5.056-1.908 5.632-4.616l0.868-4.083c0.189-0.889 0.064-1.332-0.143-1.599-0.241-0.311-0.476-0.443-0.419-0.71 0.047-0.223 0.26-0.399 0.655-0.399h7.765c0.351 0 0.523 0.222 0.476 0.443-0.03 0.133-0.25 0.355-0.66 0.444z"/>		<path d="m122.82 45.245c-0.129 0.399-0.283 0.71-0.678 0.71-0.439 0-0.32-0.977-0.367-1.375-0.055-0.977-0.736-1.688-2.098-1.688-1.535 0-3.059 0.977-4.059 2.175-0.412 0.489-0.8 1.288-0.933 1.909l-1.973 9.276c-0.236 1.11 0.281 1.775 1.023 1.997l0.864 0.267c0.366 0.134 0.645 0.267 0.599 0.488-0.057 0.267-0.393 0.399-0.787 0.399h-9.081c-0.395 0-0.674-0.133-0.626-0.354 0.057-0.267 0.392-0.399 0.815-0.533l0.979-0.267c0.836-0.222 1.592-0.887 1.828-1.997l2.634-12.384c0.235-1.109-0.271-1.82-1.032-1.953l-1.304-0.266c-0.376-0.09-0.646-0.267-0.598-0.488 0.056-0.267 0.392-0.4 0.786-0.4h5.615c0.396 0 0.567 0.223 0.589 0.533l0.184 1.819c0.04 0.223 0.284 0.312 0.506 0.089 1.742-1.997 3.992-2.885 6.449-2.885 0.439 0 1.068 0.133 1.436 0.267 0.244 0.089 0.68 0.311 0.559 0.665l-1.33 3.996z"/>		<path d="m129.58 59.848c-5.703 0-7.816-4.705-6.732-9.81 1.086-5.104 5.227-9.721 10.887-9.721 5.701 0 7.834 4.616 6.75 9.721-1.09 5.105-5.2 9.81-10.91 9.81zm3.64-17.533c-3.553 0-4.979 3.817-5.688 7.146-0.707 3.329-1.227 8.655 2.547 8.655 3.553 0 5.029-4.262 5.709-7.457 0.73-3.417 1.25-8.344-2.57-8.344z"/>		<path d="m160.34 59.404h-6.01c-0.352 0-0.533-0.178-0.598-0.488l-0.275-0.977c-0.051-0.178-0.217-0.222-0.43-0.044-1.434 1.376-3.441 1.953-5.283 1.953-3.643 0-5.701-2.485-4.73-7.058l1.889-8.877c0.236-1.109-0.281-1.775-1.023-1.998l-0.908-0.266c-0.322-0.134-0.602-0.267-0.555-0.488 0.057-0.267 0.393-0.4 0.787-0.4h7.371c0.395 0 0.541 0.134 0.494 0.355-0.057 0.267-0.383 0.355-0.703 0.621-0.373 0.311-0.725 0.933-1.008 2.264l-2.02 9.499c-0.547 2.574 0.178 3.906 2.152 3.906 1.668 0 4.373-1.376 4.816-3.462l2.133-10.031c0.236-1.109-0.191-1.775-0.936-1.998l-0.863-0.266c-0.332-0.09-0.646-0.267-0.6-0.488 0.057-0.267 0.393-0.4 0.787-0.4h6.23c0.352 0 0.576 0.178 0.5 0.533l-0.799 2.93-2.566 12.073c-0.236 1.109 0.236 1.775 1.031 1.952l1.305 0.267c0.332 0.089 0.654 0.222 0.598 0.488s-0.38 0.4-0.78 0.4z"/>		<path d="m172.19 59.849c-1.711 0-2.516-0.133-3.615-0.533-0.244-0.088-0.414 0.09-0.461 0.312l-0.842 3.522c-0.234 1.109 0.236 1.775 1.033 1.953l1.303 0.267c0.332 0.089 0.654 0.222 0.598 0.488s-0.391 0.399-0.787 0.399h-7.719c-0.396 0-0.543-0.133-0.496-0.355 0.057-0.266 0.383-0.355 0.703-0.621 0.373-0.311 0.725-0.932 0.998-2.22l4.162-19.147c0.236-1.109-0.217-1.864-0.979-1.998l-1.303-0.266c-0.377-0.089-0.646-0.267-0.6-0.488 0.057-0.267 0.393-0.399 0.787-0.399h5.703c0.352 0 0.523 0.222 0.588 0.532l0.197 0.933c0.061 0.133 0.129 0.222 0.26 0.222 0.088 0 0.238-0.089 0.398-0.222 1.6-1.332 3.389-1.909 4.836-1.909 3.992 0 6.918 2.752 5.398 9.898-1.29 6.036-5.92 9.632-10.17 9.632zm3.46-17.134c-1.402 0-2.986 0.843-4.15 2.397-0.197 0.311-0.486 0.843-0.561 1.197l-1.566 7.369c-0.652 3.062 0.188 4.483 2.775 4.483 1.975 0 4.428-2.264 5.637-7.946 1.18-5.503-0.11-7.5-2.13-7.5z"/>	</g></svg><svg xmlns:xlink="http://www.w3.org/1999/xlink" id="logo-ig-f" xml:space="preserve" height="68" viewBox="0 0 234.363 67.949" width="234" version="1.1" y="2063" x="0px" enable-background="new 0 0 234.363 67.949">		<path stroke="#fff" stroke-width="1.8425" d="m72.719 61.963c-0.544 2.797-3.252 5.064-6.05 5.064h-61.571c-2.798 0-4.624-2.268-4.081-5.064l10.881-55.976c0.544-2.797 3.252-5.065 6.05-5.065h61.571c2.798 0 4.625 2.268 4.081 5.065l-10.881 55.976z" fill="#004270"/>			<path d="m71.523 18.394c-0.926-1.091-2.387-1.716-4.002-1.716h-14.838l1.626-7.857h-34.325l-1.956 9.561h7.06c0.576 0 1.637 0 2.188 0.644 0.105 0.126 0.361 0.42 0.399 1.153 0.019 0.336-0.014 0.76-0.122 1.301-0.001 0.002-4.658 22.704-4.948 24.123-0.724 2.651-2.081 3.778-4.524 3.778h-6.433l-2.003 9.748h34.313l1.649-8.053h3.266c1.791 0 3.758-0.101 5.486-0.574-0.058 0.303-0.141 0.604-0.141 0.604l2.225-0.003h9.99l4.135-19.766h-17.655l-1.489 7.988h5.265c-0.103 0.491-0.202 0.995-0.276 1.429-0.379 1.783-1.271 2.604-2.959 2.741h-6.133c-0.031-0.004-0.051-0.004-0.076-0.004-0.001-0.109 0.012-0.243 0.053-0.454 0 0 3.611-17.346 3.691-17.745 0.196-0.856 0.367-1.169 0.434-1.265 0.137-0.018 0.432-0.016 0.659-0.016l0.236 0.003h7.423s0.035-0.005 0.059-0.005c-0.008 0.022-0.016 0.049-0.016 0.049l-0.013 0.11c-0.036 0.332-0.265 1.476-0.413 2.178l-0.455 2.124h12.233l0.269-1.279c0.033-0.138 0.731-3.435 1.035-5.108l-0.006 0.04c0.293-1.374-0.03-2.697-0.911-3.729z" fill="#fff"/>			<path d="m38.32 51.076c-2.269 0-5.154-0.918-4.27-5.21 0 0 4.975-24.204 4.971-24.19 0.958-3.731 3.093-4.998 6.139-4.998h5.722l1.276-6.154h-30.715l-1.258 6.157h4.815c0.748 0 2.492 0 3.598 1.297 0.805 0.938 1.024 2.217 0.676 3.914l-4.965 24.191c-0.82 3.039-2.617 5.002-6.144 5.002h-5.056l-1.308 6.344h30.7l1.308-6.352h-5.489z" fill="#004270"/>			<path fill="#004270" clip-rule="evenodd" d="m38.21 49.378c-1.532 0-3.049-0.262-2.463-3.103l4.967-24.204c0.502-2.575 2.263-3.694 4.508-3.694h22.384c2.082 0 3.513 1.419 3.109 3.324-0.309 1.677-1.029 5.07-1.029 5.07h-8.616s0.381-1.772 0.444-2.335c0.426-1.677-0.554-2.238-1.933-2.124h-7.351c-1.5 0-2.351-0.152-2.958 2.549l-3.689 17.761c-0.248 1.178-0.123 2.46 1.74 2.574h6.311c2.992-0.227 4.093-2.129 4.5-4.033 0.221-1.34 0.732-3.537 0.732-3.537h-5.328l0.852-4.59h14.019l-3.427 16.344h-8.625s0.4-1.907 0.561-2.69c-0.881 1.791-3.344 2.688-8.135 2.688h-10.573z" fill-rule="evenodd"/>		<g fill="#231F20">			<path d="m112.54 18.534l-1.426 0.311c-0.827 0.177-1.637 0.887-1.872 1.997l-1.728 8.123c-0.095 0.444-0.11 0.932 0.096 1.199 0.113 0.089 0.172 0.222 0.135 0.399-0.065 0.311-0.26 0.399-0.479 0.399-0.176 0-0.42-0.089-0.542-0.133l-2.729-1.199c-0.356-0.177-0.664-0.177-1.027 0.089-1.126 0.754-3.407 1.376-5.206 1.376-6.756 0-11.076-4.439-9.085-13.804 1.784-8.39 7.787-13.716 14.367-13.716 2.632 0 5.345 0.444 7.764 0.622 0.264 0 0.451 0.355 0.403 0.577l-1.491 7.014c-0.085 0.399-0.395 0.621-0.57 0.621-0.22 0-0.4-0.178-0.423-0.488-0.118-4.395-1.8-6.392-6.011-6.392-5.746 0-7.941 8.256-8.828 12.428-0.953 4.483-1.088 11.097 4.483 11.097 2.105 0 5.056-1.909 5.632-4.617l0.868-4.083c0.189-0.888 0.064-1.332-0.143-1.598-0.241-0.311-0.476-0.444-0.419-0.71 0.047-0.222 0.26-0.399 0.655-0.399h7.765c0.351 0 0.523 0.222 0.476 0.444-0.03 0.132-0.25 0.355-0.66 0.443z"/>			<path d="m128.72 16.493c-0.129 0.399-0.281 0.71-0.676 0.71-0.439 0-0.318-0.977-0.367-1.376-0.055-0.977-0.736-1.687-2.098-1.687-1.535 0-3.059 0.977-4.059 2.175-0.41 0.488-0.801 1.287-0.932 1.908l-1.975 9.277c-0.234 1.109 0.281 1.775 1.023 1.997l0.865 0.267c0.367 0.133 0.645 0.266 0.598 0.488-0.057 0.266-0.393 0.399-0.787 0.399h-9.081c-0.395 0-0.674-0.133-0.627-0.355 0.057-0.267 0.393-0.399 0.815-0.532l0.979-0.267c0.837-0.222 1.593-0.888 1.828-1.997l2.634-12.384c0.234-1.11-0.272-1.82-1.033-1.953l-1.304-0.267c-0.376-0.089-0.645-0.267-0.598-0.488 0.057-0.266 0.392-0.399 0.787-0.399h5.616c0.395 0 0.566 0.222 0.588 0.533l0.184 1.82c0.039 0.222 0.285 0.311 0.508 0.089 1.74-1.998 3.99-2.885 6.447-2.885 0.439 0 1.068 0.133 1.436 0.266 0.244 0.089 0.68 0.311 0.559 0.666l-1.33 3.995z"/>			<path d="m135.48 31.096c-5.703 0-7.816-4.705-6.73-9.81 1.084-5.104 5.225-9.721 10.885-9.721 5.701 0 7.836 4.616 6.75 9.721s-5.2 9.81-10.91 9.81zm3.64-17.533c-3.553 0-4.979 3.817-5.688 7.146-0.707 3.329-1.227 8.655 2.547 8.655 3.553 0 5.029-4.261 5.709-7.457 0.73-3.417 1.25-8.344-2.57-8.344z"/>			<path d="m166.24 30.652h-6.01c-0.352 0-0.533-0.178-0.598-0.488l-0.275-0.977c-0.051-0.178-0.215-0.222-0.43-0.044-1.434 1.376-3.441 1.953-5.283 1.953-3.643 0-5.701-2.486-4.729-7.058l1.887-8.877c0.236-1.109-0.281-1.775-1.023-1.997l-0.908-0.267c-0.322-0.133-0.602-0.267-0.555-0.488 0.057-0.266 0.393-0.399 0.787-0.399h7.371c0.395 0 0.541 0.133 0.494 0.355-0.057 0.266-0.383 0.354-0.703 0.621-0.373 0.311-0.725 0.932-1.008 2.264l-2.02 9.499c-0.547 2.574 0.178 3.905 2.152 3.905 1.668 0 4.373-1.376 4.816-3.462l2.133-10.031c0.236-1.109-0.191-1.775-0.936-1.997l-0.863-0.267c-0.332-0.089-0.645-0.267-0.598-0.488 0.055-0.266 0.391-0.399 0.785-0.399h6.23c0.35 0 0.576 0.178 0.5 0.533l-0.799 2.929-2.566 12.073c-0.236 1.109 0.236 1.775 1.033 1.953l1.303 0.267c0.332 0.089 0.654 0.222 0.598 0.488-0.04 0.266-0.37 0.399-0.77 0.399z"/>			<path d="m205.44 21.242h-9.607c-0.482 0-1.006 0.399-1.109 0.888-0.967 4.749 0.793 6.791 3.25 6.791 1.973 0 4.17-1.465 5.27-2.708 0.168-0.177 0.301-0.177 0.414-0.088l0.727 0.71c0.102 0.133 0.084 0.222 0.012 0.355-1.666 2.264-4.779 3.906-7.764 3.906-3.99 0-7.881-2.752-6.369-9.854 1.236-5.814 5.873-9.676 10.654-9.676 3.816 0 7.08 2.397 5.814 8.345-0.11 0.576-0.71 1.331-1.28 1.331zm-4.87-8.034c-2.148 0-4.023 2.22-5.059 5.638-0.146 0.488 0.016 0.754 0.498 0.754 0 0 1.307 0.045 2.271 0.045h0.922c0.832 0 1.412-0.045 1.934-0.222 0.881-0.222 1.238-0.666 1.389-1.376 0.58-2.709-0.02-4.839-1.95-4.839z"/>			<path d="m178.09 31.097c-1.713 0-2.518-0.133-3.617-0.533-0.244-0.089-0.414 0.089-0.461 0.311l-0.842 3.523c-0.236 1.11 0.238 1.776 1.033 1.954l1.303 0.266c0.332 0.088 0.654 0.223 0.598 0.488s-0.391 0.398-0.787 0.398h-7.721c-0.395 0-0.541-0.133-0.494-0.354 0.057-0.267 0.383-0.355 0.703-0.622 0.373-0.312 0.725-0.933 0.998-2.22l4.162-19.147c0.236-1.11-0.217-1.864-0.979-1.998l-1.303-0.267c-0.377-0.088-0.646-0.266-0.6-0.488 0.057-0.266 0.393-0.399 0.787-0.399h5.703c0.352 0 0.523 0.222 0.588 0.533l0.197 0.932c0.061 0.134 0.129 0.223 0.26 0.223 0.088 0 0.238-0.089 0.398-0.223 1.6-1.331 3.389-1.908 4.836-1.908 3.992 0 6.918 2.752 5.398 9.898-1.29 6.037-5.92 9.633-10.17 9.633zm3.46-17.134c-1.404 0-2.986 0.843-4.15 2.397-0.197 0.311-0.486 0.844-0.561 1.198l-1.566 7.368c-0.652 3.063 0.186 4.484 2.775 4.484 1.973 0 4.43-2.264 5.637-7.946 1.18-5.504-0.11-7.501-2.13-7.501z"/>		</g>			<g fill="#231F20">				<path d="m91.882 62.818h-11.405c-0.395 0-0.674-0.133-0.626-0.355 0.057-0.266 0.41-0.488 0.814-0.533l1.855-0.266c0.817-0.133 1.637-0.888 1.873-1.998l2.214-10.209 2.108-10.119c0.236-1.109-0.262-1.864-1.022-1.998l-1.742-0.266c-0.386-0.045-0.646-0.268-0.598-0.488 0.056-0.267 0.392-0.4 0.786-0.4h11.406c0.395 0 0.674 0.134 0.626 0.355-0.057 0.266-0.411 0.488-0.814 0.533l-1.855 0.266c-0.818 0.134-1.637 0.889-1.872 1.998l-2.197 10.119-2.127 10.209c-0.235 1.11 0.262 1.865 1.023 1.998l1.742 0.266c0.385 0.045 0.645 0.268 0.598 0.488-0.056 0.268-0.391 0.4-0.787 0.4z"/>				<path d="m115.09 62.818h-7.37c-0.395 0-0.541-0.133-0.494-0.355 0.057-0.266 0.383-0.355 0.702-0.621 0.373-0.311 0.725-0.932 1.008-2.264l2.021-9.498c0.547-2.576-0.179-3.906-2.152-3.906-1.668 0-4.373 1.375-4.816 3.461l-2.134 10.031c-0.235 1.11 0.193 1.775 0.936 1.998l0.864 0.266c0.332 0.09 0.646 0.268 0.598 0.488-0.057 0.268-0.392 0.4-0.786 0.4h-9c-0.395 0-0.674-0.133-0.626-0.355 0.056-0.266 0.392-0.4 0.815-0.533l0.978-0.266c0.837-0.223 1.593-0.888 1.828-1.998l2.634-12.383c0.235-1.109-0.228-1.82-1.032-1.953l-1.742-0.267c-0.342-0.044-0.655-0.222-0.599-0.488s0.393-0.399 0.787-0.399h6.449c0.351 0 0.532 0.178 0.598 0.488l0.275 0.977c0.05 0.178 0.216 0.222 0.429 0.045 1.434-1.377 3.442-1.953 5.285-1.953 3.641 0 5.7 2.484 4.729 7.057l-1.888 8.877c-0.236 1.11 0.28 1.775 1.022 1.998l0.908 0.266c0.323 0.133 0.602 0.268 0.555 0.488-0.06 0.267-0.4 0.399-0.79 0.399z"/>				<path d="m137.02 45.107c-0.486 0.223-0.99 0.533-1.387 1.154l-10.54 16.557c-0.188 0.266-0.797 0.443-1.41 0.443-0.527 0-1.104-0.178-1.143-0.399l-3.656-16.646c-0.105-0.531-0.521-0.842-0.986-0.932l-1.006-0.222c-0.332-0.089-0.654-0.222-0.587-0.532 0.047-0.223 0.382-0.355 0.777-0.355h8.906c0.395 0 0.682 0.088 0.625 0.355-0.064 0.311-0.391 0.398-0.814 0.532l-1.207 0.312c-0.467 0.133-0.664 0.443-0.75 0.842-0.047 0.223-0.059 0.488-0.01 0.666l1.602 10.209c0.041 0.223 0.393 0.223 0.527 0l6.031-10.209c0.125-0.178 0.227-0.443 0.273-0.666 0.084-0.398 0.02-0.709-0.391-0.842l-1.164-0.312c-0.375-0.089-0.654-0.222-0.588-0.532 0.057-0.268 0.383-0.355 0.777-0.355h6.186c0.395 0 0.674 0.133 0.627 0.355-0.06 0.267-0.35 0.4-0.69 0.577z"/>				<path d="m150.52 53.408h-9.607c-0.482 0-1.006 0.398-1.109 0.888-0.965 4.749 0.793 6.792 3.25 6.792 1.975 0 4.172-1.466 5.27-2.709 0.17-0.178 0.301-0.178 0.414-0.088l0.727 0.71c0.104 0.134 0.084 0.222 0.012 0.354-1.666 2.264-4.779 3.906-7.762 3.906-3.992 0-7.881-2.752-6.371-9.854 1.236-5.814 5.875-9.676 10.656-9.676 3.816 0 7.078 2.396 5.814 8.344-0.12 0.579-0.72 1.333-1.29 1.333zm-4.88-8.033c-2.15 0-4.025 2.219-5.059 5.637-0.148 0.488 0.014 0.754 0.496 0.754 0 0 1.307 0.045 2.273 0.045h0.92c0.834 0 1.414-0.045 1.934-0.223 0.881-0.222 1.238-0.666 1.391-1.375 0.58-2.709-0.02-4.838-1.95-4.838z"/>				<path d="m158.82 63.262c-2.412 0-5.404-0.576-6.479-0.888-0.289-0.089-0.471-0.267-0.447-0.577 0.098-0.666 0.27-1.687 0.354-2.486 0.115-0.754 0.236-1.73 0.279-2.352 0.014-0.266 0.201-0.533 0.51-0.533 0.262 0 0.479 0.223 0.465 0.488 0.49 3.685 2.197 4.527 5.793 4.527 1.623 0 3.908-0.843 4.314-2.752 0.992-4.66-10.453-2.618-8.943-9.721 0.707-3.328 3.264-5.236 7.738-5.236 2.324 0 6.422 0.531 6.422 0.531 0.264 0 0.393 0.223 0.346 0.445l-0.904 4.66c-0.037 0.178-0.201 0.533-0.465 0.533-0.174 0-0.312-0.178-0.354-0.4-0.389-3.328-1.947-4.039-5.238-4.039-1.93 0-3.582 0.754-3.959 2.529-0.812 3.818 10.723 2.176 9.137 9.633-0.99 4.661-4.85 5.638-8.57 5.638z"/>				<path d="m181.2 61.975c-1.105 0.666-2.736 1.109-4.623 1.109-3.553 0-5.598-1.109-4.975-4.039l2.68-12.605h-3.465c-0.219 0-0.4-0.178-0.354-0.399l0.303-1.421c0.057-0.266 0.27-0.443 0.533-0.443h2.807c0.439 0 0.924-0.223 1.488-1.021l3.621-5.06c0.189-0.267 0.49-0.444 0.752-0.444 0.264 0 0.533 0.178 0.449 0.578l-1.266 5.947h5c0.309 0 0.42 0.088 0.363 0.355l-0.348 1.643c-0.057 0.266-0.252 0.354-0.471 0.354l-5.027-0.089-2.48 11.674c-0.426 1.997-0.367 3.373 1.957 3.373 0.922 0 2.068-0.443 2.662-0.754 0.193-0.09 0.379-0.134 0.428 0.044l0.129 0.843c0.05 0.177 0.04 0.267-0.16 0.355z"/>				<path d="m189.96 63.262c-5.703 0-7.816-4.705-6.732-9.809 1.086-5.105 5.227-9.721 10.885-9.721 5.703 0 7.836 4.615 6.752 9.721-1.09 5.104-5.2 9.809-10.91 9.809zm3.64-17.533c-3.553 0-4.979 3.817-5.688 7.146-0.707 3.33-1.227 8.656 2.547 8.656 3.553 0 5.029-4.262 5.709-7.457 0.73-3.418 1.25-8.345-2.57-8.345z"/>				<path d="m217.81 48.658c-0.129 0.4-0.283 0.711-0.678 0.711-0.439 0-0.32-0.977-0.365-1.377-0.057-0.977-0.738-1.686-2.1-1.686-1.535 0-3.059 0.977-4.059 2.175-0.412 0.487-0.801 1.287-0.934 1.909l-1.973 9.275c-0.234 1.11 0.281 1.775 1.023 1.998l0.865 0.266c0.367 0.133 0.645 0.268 0.598 0.488-0.057 0.268-0.393 0.4-0.787 0.4h-9.08c-0.395 0-0.674-0.133-0.627-0.355 0.057-0.266 0.393-0.4 0.814-0.533l0.979-0.266c0.838-0.223 1.594-0.888 1.828-1.998l2.635-12.383c0.236-1.109-0.271-1.82-1.033-1.953l-1.303-0.267c-0.377-0.089-0.645-0.267-0.598-0.488 0.057-0.267 0.391-0.399 0.787-0.399h5.613c0.396 0 0.568 0.223 0.59 0.533l0.184 1.819c0.041 0.222 0.285 0.312 0.508 0.089 1.74-1.998 3.99-2.885 6.447-2.885 0.439 0 1.068 0.133 1.436 0.266 0.244 0.09 0.68 0.311 0.561 0.666l-1.33 3.995z"/>				<path d="m224 63.262c-2.412 0-5.404-0.576-6.479-0.888-0.289-0.089-0.471-0.267-0.449-0.577 0.1-0.666 0.271-1.687 0.354-2.486 0.117-0.754 0.236-1.73 0.281-2.352 0.014-0.266 0.201-0.533 0.508-0.533 0.264 0 0.48 0.223 0.467 0.488 0.488 3.685 2.195 4.527 5.793 4.527 1.623 0 3.908-0.843 4.314-2.752 0.99-4.66-10.455-2.618-8.943-9.721 0.707-3.328 3.264-5.236 7.736-5.236 2.326 0 6.424 0.531 6.424 0.531 0.264 0 0.393 0.223 0.344 0.445l-0.902 4.66c-0.037 0.178-0.201 0.533-0.465 0.533-0.176 0-0.312-0.178-0.354-0.4-0.389-3.328-1.949-4.039-5.238-4.039-1.93 0-3.582 0.754-3.961 2.529-0.811 3.818 10.725 2.176 9.139 9.633-0.99 4.661-4.84 5.638-8.57 5.638z"/>			</g></svg><svg xmlns:xlink="http://www.w3.org/1999/xlink" id="map-pin" xml:space="preserve" height="80" viewBox="0 0 50 80" width="50" version="1.1" y="2131" x="0px" enable-background="new 0 0 50 80">	<path d="m25 0c-13.809 0-25 11.194-25 25 0 23.87 25 55 25 55s25-31.13 25-55c0-13.806-11.193-25-25-25zm0 38.8c-7.457 0-13.5-6.044-13.5-13.5s6.043-13.5 13.5-13.5c7.455 0 13.5 6.044 13.5 13.5s-6.045 13.5-13.5 13.5z" fill="#010101"/></svg><svg xmlns:xlink="http://www.w3.org/1999/xlink" id="minus-circle" xml:space="preserve" height="84" viewBox="0 0 84 84" width="84" version="1.1" y="2211" x="0px" enable-background="new 0 0 84 84">	<path d="m42 0c-23.196 0-42 18.807-42 42 0 23.197 18.804 42 42 42 23.195 0 42-18.803 42-42 0-23.193-18.805-42-42-42zm25.248 36.889l0.002 10.223h-50.5v-10.221l50.498-0.002z" fill="#010101"/></svg><svg xmlns:xlink="http://www.w3.org/1999/xlink" id="minus" xml:space="preserve" height="10" viewBox="0 0 58 10" width="58" version="1.1" y="2295" x="0px" enable-background="new 0 0 58 10">	<path d="m55 0h-52c-2.762 0-3 2.238-3 5s0.238 5 3 5h52c2.762 0 3-2.238 3-5s-0.239-5-3-5z" fill="#010101"/></svg><svg xmlns:xlink="http://www.w3.org/1999/xlink" id="next-line-circle" xml:space="preserve" height="105" viewBox="0 -0.001 105 105" width="105" version="1.1" y="2305" x="0px" enable-background="new 0 -0.001 105 105">	<path stroke="#000" stroke-width="5" stroke-miterlimit="10" d="m52.5 2.499c27.603 0 50 22.388 50 50 0 27.604-22.397 50-50 50-27.612 0-50-22.396-50-50 0-27.613 22.388-50.001 50-50.001z" fill="none"/>	<path d="m41.498 75.169c-0.809 0.816-0.809 2.167 0 2.97 0.822 0.848 2.14 0.849 2.97 0l23.908-24.151c0.829-0.828 0.829-2.148 0-2.979l-23.908-24.169c-0.83-0.827-2.148-0.827-2.97 0-0.809 0.83-0.809 2.169-0.001 2.993l21.819 22.669-21.818 22.667z" fill="#010101"/></svg><svg xmlns:xlink="http://www.w3.org/1999/xlink" id="next-solid-circle" xml:space="preserve" height="105" viewBox="0 -0.001 105 105" width="105" version="1.1" y="2410" x="0px" enable-background="new 0 -0.001 105 105">	<path stroke="#000" stroke-width="5" stroke-miterlimit="10" d="m52.5 2.499c27.603 0 50 22.388 50 50 0 27.604-22.397 50-50 50-27.612 0-50-22.396-50-50 0-27.613 22.388-50.001 50-50.001z"/>	<path d="m41.498 75.169c-0.809 0.816-0.809 2.167 0 2.97 0.822 0.848 2.14 0.849 2.97 0l23.908-24.151c0.829-0.828 0.829-2.148 0-2.979l-23.908-24.169c-0.83-0.827-2.148-0.827-2.97 0-0.809 0.83-0.809 2.169-0.001 2.993l21.819 22.669-21.818 22.667z" fill="#fff"/></svg><svg xmlns:xlink="http://www.w3.org/1999/xlink" id="plus-circle" xml:space="preserve" height="84" viewBox="0 0 84 84" width="84" version="1.1" y="2515" x="0px" enable-background="new 0 0 84 84">	<path d="m42 0c-23.196 0-42 18.807-42 42 0 23.197 18.804 42 42 42 23.194 0 42-18.803 42-42 0-23.193-18.806-42-42-42zm5.111 47.111v20.14h-10.221v-20.14h-20.14v-10.22h20.14l-0.001-20.138 10.223-0.002v20.139l20.137-0.001 0.002 10.223h-20.14z" fill="#010101"/></svg><svg xmlns:xlink="http://www.w3.org/1999/xlink" id="plus" xml:space="preserve" height="58" viewBox="0 0 58 58" width="58" version="1.1" y="2599" x="0px" enable-background="new 0 0 58 58">	<path d="m55 24h-21v-21c0-2.762-2.238-3-5-3s-5 0.238-5 3v21h-21c-2.762 0-3 2.238-3 5s0.238 5 3 5h21v21c0 2.762 2.238 3 5 3 2.761 0 5-0.238 5-3v-21h21c2.762 0 3-2.238 3-5s-0.239-5-3-5z" fill="#010101"/></svg><svg xmlns:xlink="http://www.w3.org/1999/xlink" id="previous-line-circle" xml:space="preserve" height="105" viewBox="0 -0.001 105 105" width="105" version="1.1" y="2657" x="0px" enable-background="new 0 -0.001 105 105">	<path stroke="#000" stroke-width="5" stroke-miterlimit="10" d="m52.501 2.499c27.628 0 49.999 22.398 49.999 50 0 27.627-22.371 50.001-49.999 50.001-27.602 0-50.001-22.374-50.001-50.001 0-27.602 22.399-50 50.001-50z" fill="none"/>	<path d="m63.517 75.167c0.807 0.849 0.807 2.174 0 3.006-0.821 0.811-2.14 0.813-2.962 0l-23.931-24.161c-0.826-0.83-0.826-2.172 0-2.996l23.931-24.165c0.822-0.831 2.139-0.831 2.962 0 0.807 0.831 0.807 2.157 0.002 2.98l-21.825 22.669 21.823 22.667z" fill="#010101"/></svg><svg xmlns:xlink="http://www.w3.org/1999/xlink" id="previous-solid-circle" xml:space="preserve" height="105" viewBox="0 -0.001 105 105" width="105" version="1.1" y="2762" x="0px" enable-background="new 0 -0.001 105 105">	<path stroke="#000" stroke-width="5" stroke-miterlimit="10" d="m52.501 2.499c27.628 0 49.999 22.398 49.999 50 0 27.627-22.371 50.001-49.999 50.001-27.602 0-50.001-22.374-50.001-50.001 0-27.602 22.399-50 50.001-50z"/>	<path d="m63.517 75.167c0.807 0.849 0.807 2.174 0 3.006-0.821 0.811-2.14 0.813-2.962 0l-23.931-24.161c-0.826-0.83-0.826-2.172 0-2.996l23.931-24.165c0.822-0.831 2.139-0.831 2.962 0 0.807 0.831 0.807 2.157 0.002 2.98l-21.825 22.669 21.823 22.667z" fill="#fff"/></svg><svg xmlns:xlink="http://www.w3.org/1999/xlink" id="search" xml:space="preserve" height="79" viewBox="0 0 79.001 79" width="79" version="1.1" y="2867" x="0px" enable-background="new 0 0 79.001 79">	<path d="m77.225 66.837l-18.895-18.895c2.85-4.681 4.49-10.177 4.49-16.058 0-17.082-14.802-31.884-31.888-31.884-17.082 0-30.932 13.85-30.932 30.934s14.803 31.885 31.885 31.885c5.68 0 11-1.538 15.574-4.21l18.996 18.997c1.859 1.859 4.873 1.859 6.73 0l4.713-4.71c1.86-1.861 1.186-4.201-0.673-6.059zm-67.705-35.903c0-11.828 9.588-21.416 21.412-21.416 11.83 0 22.369 10.539 22.369 22.367 0 11.827-9.588 21.416-21.416 21.416-11.826 0-22.365-10.539-22.365-22.367z" fill="#010101"/></svg><svg xmlns:xlink="http://www.w3.org/1999/xlink" id="soc-facebook" xml:space="preserve" height="86" viewBox="0 0 86 86" width="86" version="1.1" y="2946" x="0px" enable-background="new 0 0 86 86"><path d="m75.25 0h-64.5c-5.912 0-10.75 4.838-10.75 10.75v64.5c0 5.913 4.838 10.75 10.75 10.75h32.621v-30.836h-10.298v-13.434h10.298v-6.73c0-10.374 7.66-18.5 17.439-18.5h9.492v15.169h-8.492c-2.223 0-2.875 1.276-2.875 3.04v7.021h11.367v13.434h-11.366v30.836h16.314c5.914 0 10.75-4.837 10.75-10.75v-64.5c0-5.912-4.836-10.75-10.75-10.75z" fill="#3b5998"/></svg><svg xmlns:xlink="http://www.w3.org/1999/xlink" id="soc-instagram" xml:space="preserve" height="86" viewBox="0 0 86 86" width="86" version="1.1" y="3032" x="0px" enable-background="new 0 0 86 86"><path d="m69 43c0 14.361-11.643 26-26 26-14.361 0-26-11.639-26-26 0-1.711 0.17-3.382 0.484-5h-17.484v34.562c0 7.422 6.012 13.438 13.438 13.438h59.125c7.417 0 13.437-6.016 13.437-13.438v-34.562h-17.486c0.316 1.618 0.486 3.289 0.486 5zm3.562-43h-59.124c-7.426 0-13.438 6.018-13.438 13.438v14.562h21.768c4.709-6.653 12.461-11 21.232-11 8.77 0 16.521 4.347 21.229 11h21.771v-14.562c0-7.42-6.02-13.438-13.438-13.438zm6.569 16.6c0 1.321-1.078 2.4-2.398 2.4h-7.201c-1.318 0-2.4-1.079-2.4-2.4v-7.2c0-1.321 1.082-2.4 2.4-2.4h7.201c1.32 0 2.398 1.079 2.398 2.4v7.2zm-20.131 26.4c0-8.837-7.164-16-16-16-8.838 0-16 7.163-16 16s7.162 16 16 16c8.836 0 16-7.163 16-16z" fill="#517fa4"/></svg><svg xmlns:xlink="http://www.w3.org/1999/xlink" id="soc-linkedin" xml:space="preserve" height="89" viewBox="0 0 90 88.738" width="90" version="1.1" y="3118" x="0px" enable-background="new 0 0 90 88.738"><g fill="#007bb6">	<path d="m20.379 9.621c0 5.315-3.924 9.62-10.381 9.62-6.074 0-9.998-4.304-9.998-9.62 0-5.443 4.051-9.621 10.252-9.621 6.203 0 10.002 4.178 10.127 9.621zm-19.873 79.117v-61.901h19.242v61.901h-19.242z"/>	<path d="m31.262 46.584c0-7.721-0.252-14.176-0.504-19.747h16.707l0.889 8.608h0.379c2.531-4.053 8.734-10.002 19.115-10.002 12.657 0 22.152 8.483 22.152 26.71v36.585h-19.243v-34.305c0-7.976-2.785-13.417-9.748-13.417-5.316 0-8.479 3.67-9.871 7.215-0.508 1.265-0.635 3.038-0.635 4.811v35.697h-19.241v-42.155z"/></g></svg><svg xmlns:xlink="http://www.w3.org/1999/xlink" id="soc-stumbleupon" xml:space="preserve" height="76" viewBox="0 0 100 76" width="100" version="1.1" y="3207" x="0px" enable-background="new 0 0 100 76"><path d="m55.255 28.296l6.822 3.297 10.295-3.297v-5.969c0.001-12.311-10.037-22.327-22.372-22.327-12.336 0-22.372 10.016-22.372 22.327v31.346c0 2.892-2.358 5.244-5.256 5.244s-5.255-2.353-5.255-5.244v-13.125h-17.117v13.125c0 12.311 10.036 22.327 22.372 22.327 12.337 0 22.372-10.016 22.372-22.327v-31.346c0-2.892 2.358-5.244 5.256-5.244s5.255 2.353 5.255 5.244v5.969zm27.627 12.252v13.125c0 2.892-2.357 5.244-5.254 5.244-2.898 0-5.256-2.353-5.256-5.244v-13.389l-10.295 3.297-6.822-3.297v13.389c0 12.311 10.036 22.327 22.373 22.327 12.334 0 22.372-10.016 22.372-22.327v-13.125h-17.118z" fill="#eb4823"/></svg><svg xmlns:xlink="http://www.w3.org/1999/xlink" id="soc-youtube" xml:space="preserve" height="86" viewBox="-44 -27 120 86" width="120" version="1.1" y="3283" x="0px" enable-background="new -44 -27 120 86">	<path d="m72.168-8.441s-1.118-8.432-4.557-12.145c-4.359-4.865-9.245-4.896-11.483-5.17-16.041-1.244-40.104-1.244-40.104-1.244h-0.054s-24.062 0-40.103 1.244c-2.238 0.274-7.119 0.305-11.483 5.17-3.434 3.713-4.556 12.145-4.556 12.145s-1.146 9.894-1.146 19.787v9.274c0 9.898 1.146 19.792 1.146 19.792s1.118 8.427 4.556 12.132c4.364 4.868 10.086 4.721 12.639 5.229 9.168 0.936 38.977 1.227 38.977 1.227s24.087-0.042 40.128-1.273c2.238-0.286 7.124-0.314 11.483-5.18 3.438-3.705 4.557-12.135 4.557-12.135s1.148-9.894 1.148-19.789v-9.272c0-9.899-1.148-19.792-1.148-19.792z" fill="#b00"/>	<polygon points="1.684 -5.501 1.684 37.499 37.517 16" fill="#fff"/></svg></svg>
