<?xml version="1.0"?>
<!--Icons from directory ""-->
<svg xmlns="http://www.w3.org/2000/svg" width="100" height="2200" viewBox="0 0 100 2200">
	<style type="text/css">
		<![CDATA[	.st0{fill:#464342;}	.st1{fill:#E04B26;}	.st2{fill:#E74B24;}	.st3{fill:#E94C88;}	.st4{fill:#1AB6EA;}	.st5{fill:#EA2429;}	.st6{fill:#EC1E82;}	.st7{fill:#B9B9BA;}	.st8{fill:#EE3E53;}	.st9{fill:#EE4977;}	.st10{fill:#5496D0;}	.st11{fill:#BBBBBB;}	.st12{fill:#BCBCBC;}	.st13{fill:#F16722;}	.st14{fill:#5A471C;}	.st15{fill:url(#SVGID_1_);}	.st16{fill:#0976b4;}	.st17{fill:#2AA9E0;}	.st18{fill-rule:evenodd;clip-rule:evenodd;fill:#BBBBBB;}	.st19{fill-rule:evenodd;clip-rule:evenodd;fill:#BCBCBC;}	.st20{fill:#C93C27;}	.st21{fill:#638BB0;}	.st22{fill:#CA2027;}	.st23{fill:#30302F;}	.st24{fill:#34373D;}	.st25{fill:#00405D;}	.st26{fill:#007EE5;}	.st27{fill:#00A8E1;}	.st28{fill-rule:evenodd;clip-rule:evenodd;fill:#FFFFFF;}	.st29{fill:#035795;}	.st30{fill:#3C5A97;}	.st31{fill:#3F64AE;}	.st32{fill:#3F729B;}	.st33{fill:#A42F23;}	.st34{fill:#75C044;}	.st35{fill:#A72723;}	.st36{fill:#DB2726;}	.st37{fill:#DD3333;}	.st38{fill:url(#soundcloud_2_);}	.st39{fill:#442D86;}	.st40{fill:#44556B;}]]>
	</style>
	<svg xmlns:xlink="http://www.w3.org/1999/xlink" id="cancel-circle-no-grid-100" xml:space="preserve" height="100" viewBox="0 0 100 100" width="100" version="1.1" y="0" x="0px" enable-background="new 0 0 100 100">
		<path d="m50 0c-27.614 0-50 22.386-50 50s22.386 50 50 50 50-22.386 50-50-22.386-50-50-50zm25 33.839l-16.161 16.161 16.161 16.161v8.839h-8.839l-16.161-16.161-16.161 16.161h-8.839v-8.839l16.161-16.161-16.161-16.161v-8.839h8.839l16.161 16.161 16.161-16.161h8.839v8.839z"/>
	</svg>
	<svg xmlns:xlink="http://www.w3.org/1999/xlink" id="checkmark-circle" xml:space="preserve" height="100" viewBox="206 206 99.999 99.999" width="100" version="1.1" y="100" x="0px" enable-background="new 206 206 99.999 99.999">
		<path d="m256 206c-27.614 0-50 22.386-50 50s22.386 49.999 50 49.999 49.999-22.385 49.999-49.999c0-27.61-22.39-50-50-50zm-9.38 81.25l-20.703-26.953 9.179-9.57 11.523 14.648 36.133-29.492 4.492 4.492-40.62 46.87z"/>
	</svg>
	<svg xmlns:xlink="http://www.w3.org/1999/xlink" id="close" xml:space="preserve" height="100" viewBox="206.001 206.001 99.999 99.998" width="100" version="1.1" y="200" x="0px" enable-background="new 206.001 206.001 99.999 99.998">
		<path d="m305.09 286.34c-0.001-0.001-0.001-0.001-0.002-0.001l-30.34-30.34 30.336-30.336c0.001 0 0.001 0 0.002-0.001 0.326-0.327 0.562-0.708 0.714-1.115 0.414-1.111 0.178-2.411-0.716-3.304l-14.33-14.331c-0.894-0.893-2.192-1.129-3.304-0.715-0.406 0.151-0.788 0.387-1.115 0.714v0.001l-30.34 30.34-30.336-30.336s-0.001 0-0.001-0.001c-0.327-0.326-0.708-0.562-1.115-0.714-1.111-0.415-2.411-0.178-3.304 0.715l-14.331 14.331c-0.894 0.894-1.13 2.193-0.715 3.304 0.152 0.406 0.388 0.788 0.714 1.115l0.001 0.001 30.34 30.34-30.336 30.337s-0.001 0-0.001 0.001c-0.326 0.326-0.562 0.708-0.714 1.114-0.415 1.111-0.178 2.41 0.715 3.304l14.331 14.331c0.894 0.893 2.192 1.129 3.304 0.715 0.406-0.151 0.788-0.388 1.115-0.714 0-0.001 0-0.001 0.001-0.001l30.34-30.34 30.336 30.337h0.001c0.327 0.327 0.708 0.563 1.114 0.715 1.111 0.414 2.411 0.178 3.304-0.715l14.331-14.331c0.893-0.894 1.13-2.193 0.715-3.304-0.15-0.4-0.39-0.79-0.71-1.11z"/>
	</svg>
	<svg xmlns:xlink="http://www.w3.org/1999/xlink" id="cog2" xml:space="preserve" height="100" viewBox="206 206 99.999 99.999" width="100" version="1.1" y="300" x="0px" enable-background="new 206 206 99.999 99.999">
		<path d="m306 265.38v-18.768l-14.333-2.389c-0.582-1.771-1.291-3.483-2.118-5.127l8.442-11.819-13.27-13.26-11.8 8.428c-1.651-0.835-3.373-1.552-5.152-2.139l-2.39-14.3h-18.768l-2.383 14.298c-1.78 0.587-3.501 1.304-5.153 2.139l-11.799-8.428-13.271 13.271 8.442 11.82c-0.827 1.644-1.536 3.356-2.118 5.127l-14.33 2.39v18.768l14.367 2.395c0.582 1.755 1.29 3.452 2.114 5.081l-8.471 11.86 13.271 13.271 11.88-8.485c1.622 0.815 3.31 1.517 5.055 2.093l2.4 14.401h18.768l2.4-14.401c1.745-0.576 3.434-1.277 5.056-2.093l11.88 8.485 13.271-13.271-8.471-11.86c0.823-1.629 1.531-3.326 2.113-5.081l14.36-2.39zm-50 3.12c-6.903 0-12.5-5.596-12.5-12.5 0-6.903 5.597-12.5 12.5-12.5 6.904 0 12.5 5.597 12.5 12.5 0 6.9-5.6 12.5-12.5 12.5z"/>
	</svg>
	<svg xmlns:xlink="http://www.w3.org/1999/xlink" id="home" xml:space="preserve" height="100" viewBox="206.001 209.026 99.998 100" width="100" version="1.1" y="400" x="0px" enable-background="new 206.001 209.026 99.998 100">
		<path d="m306 263.66l-50-38.81-50 38.811v-15.823l50-38.811 49.999 38.811v15.82zm-12.5-1.41v37.499h-25v-25h-25v24.999h-25v-37.5l37.5-28.125 37.5 28.13z"/>
	</svg>
	<svg xmlns:xlink="http://www.w3.org/1999/xlink" id="icon_facebook-sign" style="enable-background:new 0 0 100 100" xml:space="preserve" height="100" viewBox="0 0 100 100" width="100" version="1.1" y="500" x="0px">
		
		<path id="icon_facebook-sign-facebook_1_" d="m89.2 0h-78.4c-6 0-10.8 4.8-10.8 10.8v78.4c0 6 4.8 10.8 10.8 10.8h78.4c6 0 10.8-4.8 10.8-10.8v-78.4c0-6-4.8-10.8-10.8-10.8zm-23.4 53.4h-11.4v30.3h-11.5v-30.3h-8v-10.9h8v-9.3c0-7.3 4.7-14 15.6-14 4.4 0 7.7 0.4 7.7 0.4l-0.2 10.2h-7c-3.9 0-4.6 1.8-4.6 4.8v0.5 7.4h11.8l-0.4 10.9z" class="st30"/>
	</svg>
	<svg xmlns:xlink="http://www.w3.org/1999/xlink" id="icon_linkedin-sign" style="enable-background:new 0 0 100 100" xml:space="preserve" height="100" viewBox="0 0 100 100" width="100" version="1.1" y="600" x="0px">
		<g id="icon_linkedin-sign-linkedin_1_">	
			<!--
			<linearGradient id="icon_linkedin-sign-SVGID_1_" y2="45.508" gradientUnits="userSpaceOnUse" x2="54.791" y1="45.508" x1="54.705">		
				<stop stop-color="#016699" offset="0"/>		
				<stop stop-color="#016699" offset="1"/>	
			</linearGradient>	
			<path class="st15" d="m54.8 45.6v-0.1s-0.1 0 0 0.1z"/>	
			<linearGradient id="icon_linkedin-sign-SVGID_2_" y2="50" gradientUnits="userSpaceOnUse" x2="100" y1="50">		
				<stop stop-color="#016699" offset="0"/>		
				<stop stop-color="#016699" offset="1"/>	
			</linearGradient>
			-->
			<path class="st16" fill="#0976b4;" d="m89.2 0h-78.4c-6 0-10.8 4.8-10.8 10.8v78.4c0 6 4.8 10.8 10.8 10.8h78.4c6 0 10.8-4.8 10.8-10.8v-78.4c0-6-4.8-10.8-10.8-10.8zm-55 79.7h-13.3v-40h13.3v40zm-6.7-45.4c-4.5 0-7.4-3.1-7.4-6.9 0-3.9 3-6.9 7.5-6.9s7.3 3 7.4 6.9c0 3.9-2.9 6.9-7.5 6.9zm54.6 45.4h-13.3v-21.3c0-5.4-1.9-9-6.7-9-3.7 0-5.9 2.5-6.8 4.9-0.4 0.9-0.4 2-0.4 3.2v22.3h-13.4s0.2-36.2 0-40h13.3v5.7c1.8-2.7 4.9-6.6 12-6.6 8.7 0 15.3 5.7 15.3 18v22.8z"/>
		</g>
	</svg>
	<svg xmlns:xlink="http://www.w3.org/1999/xlink" id="icon_twitter-sign" style="enable-background:new 0 0 100 100" xml:space="preserve" height="100" viewBox="0 0 100 100" width="100" version="1.1" y="700" x="0px">
		<path id="icon_twitter-sign-twitter_1_" d="m89.2 0h-78.4c-6 0-10.8 4.8-10.8 10.8v78.4c0 6 4.8 10.8 10.8 10.8h78.4c6 0 10.8-4.8 10.8-10.8v-78.4c0-6-4.8-10.8-10.8-10.8zm-8.7 36.3v1.9c0 19.4-14.7 41.7-41.7 41.7-8.3 0-16-2.4-22.5-6.6 1.1 0.1 2.3 0.2 3.5 0.2 6.9 0 13.2-2.3 18.2-6.3-6.4-0.1-11.8-4.4-13.7-10.2 0.9 0.2 1.8 0.3 2.8 0.3 1.3 0 2.6-0.2 3.9-0.5-6.7-1.3-11.8-7.3-11.8-14.4v-0.2c2 1.1 4.2 1.8 6.6 1.8-3.9-2.6-6.5-7.1-6.5-12.2 0-2.7 0.7-5.2 2-7.4 7.2 8.9 18 14.7 30.2 15.3-0.2-1.1-0.4-2.2-0.4-3.3 0-8.1 6.6-14.7 14.7-14.7 4.2 0 8 1.8 10.7 4.6 3.3-0.7 6.5-1.9 9.3-3.6-1.1 3.4-3.4 6.3-6.4 8.1 3-0.4 5.8-1.1 8.4-2.3-2 3.1-4.4 5.7-7.3 7.8z" class="st17"/>
	</svg>
	<svg xmlns:xlink="http://www.w3.org/1999/xlink" id="icon_youtube-sign" style="enable-background:new 0 0 100 100" xml:space="preserve" height="100" viewBox="0 0 100 100" width="100" version="1.1" y="800" x="0px">
		<g id="icon_youtube-sign-youtube_1_">	
			<path class="st5" d="m44.9 71.8c-0.7 1-1.4 1.6-2.1 1.6-0.4 0-0.7-0.3-0.8-0.8v-1.3-13.6h-3.3v14.6c0 1.3 0.1 2.2 0.3 2.7 0.3 0.9 1.1 1.4 2.2 1.4 1.2 0 2.5-0.7 3.8-2.3v2h3.3v-18.4h-3.3v14.1z"/>	
			<polygon points="26.5 54.9 30.4 54.9 30.4 76.1 34.1 76.1 34.1 54.9 38.1 54.9 38.1 51.4 26.5 51.4" class="st5"/>	
			<path class="st5" d="m57.9 57.5c-1.2 0-2.4 0.7-3.4 2v-8.1h-3.3v24.7h3.3v-1.8c1.1 1.4 2.3 2 3.4 2 1.3 0 2.2-0.7 2.7-2.1 0.2-0.8 0.3-2 0.3-3.7v-7.3c0-1.7-0.1-3-0.3-3.7-0.5-1.3-1.4-2-2.7-2zm-0.3 13.3c0 1.7-0.5 2.5-1.5 2.5-0.5 0-1.1-0.3-1.7-0.8v-11.2c0.6-0.5 1.1-0.8 1.7-0.8 1 0 1.5 0.9 1.5 2.5v7.8z"/>	
			<path class="st5" d="m89.2 0h-78.4c-6 0-10.8 4.8-10.8 10.8v78.4c0 6 4.8 10.8 10.8 10.8h78.4c6 0 10.8-4.8 10.8-10.8v-78.4c0-6-4.8-10.8-10.8-10.8zm-32.2 23.4v-0.4h3.4v13.7 1.3c0.1 0.5 0.3 0.8 0.8 0.8 0.7 0 1.4-0.5 2.1-1.6v-14.2h3.4v19h-3.4v-2c-1.3 1.5-2.6 2.3-3.9 2.3-1.1 0-1.8-0.4-2.2-1.4-0.2-0.6-0.3-1.5-0.3-2.8v-14.7zm-12.8 6v-0.2-0.2c0-2 0.3-3.4 1.1-4.4 0.9-1.3 2.2-1.9 3.9-1.9s3 0.6 3.9 1.9c0.7 0.9 1 2.4 1 4.4v6.5 0.2 0.3c0 2-0.3 3.4-1 4.4-0.9 1.3-2.2 1.9-3.9 1.9s-3-0.6-3.9-1.9c-0.7-0.9-1.1-2.4-1.1-4.4v-6.6zm-12.9-12.8h3.9l2.7 9.8 2.5-9.8h3.8l-0.1 0.4h0.1l-4.5 14.8v10.2h-3.7v-10.1c-0.3-1.8-1.1-4.4-2.3-7.9-0.8-2.3-1.6-4.6-2.4-7h0.1c0-0.1-0.1-0.3-0.1-0.4zm45.3 60.6c-0.7 2.9-3.1 5.1-6 5.4-6.8 0.8-13.8 0.8-20.7 0.8s-13.8 0-20.7-0.8c-2.9-0.3-5.3-2.5-6-5.4-1-4.2-1-8.7-1-13.1 0-4.3 0-8.9 1-13.1 0.7-2.9 3.1-5.1 6-5.4 6.8-0.8 13.8-0.8 20.7-0.8s13.8 0 20.7 0.8c2.9 0.3 5.3 2.5 6 5.4 1 4.2 1 8.7 1 13.1s0 8.9-1 13.1z"/>	
			<path class="st5" d="m68.5 57.5c-1.7 0-3 0.6-4 1.9-0.7 0.9-1 2.4-1 4.3v6.5c0 2 0.4 3.4 1.1 4.3 1 1.3 2.3 1.9 4 1.9s3.1-0.7 4-2c0.4-0.6 0.7-1.3 0.8-2 0-0.3 0.1-1.1 0.1-2.1v-0.5h-3.4c0 1.3 0 2.1-0.1 2.3-0.2 0.9-0.7 1.3-1.5 1.3-1.1 0-1.7-0.8-1.7-2.6v-3.3h6.7v-3.8c0-2-0.3-3.4-1-4.3-1-1.3-2.3-1.9-4-1.9zm1.7 7.2h-3.3v-1.7c0-1.7 0.6-2.6 1.7-2.6s1.7 0.9 1.7 2.6v1.7z"/>	
			<path class="st5" d="m49.2 38.8c1 0 1.5-0.8 1.6-2.3v-7.7c0-1.7-0.5-2.6-1.6-2.6-1 0-1.5 0.8-1.6 2.3v7.7c0 1.7 0.5 2.6 1.6 2.6z"/>
		</g>
	</svg>
	<svg xmlns:xlink="http://www.w3.org/1999/xlink" id="info" xml:space="preserve" height="100" viewBox="206 206 99.999 99.999" width="100" version="1.1" y="900" x="0px" enable-background="new 206 206 99.999 99.999">
		<path d="m256 206c-27.614 0-50 22.386-50 50s22.386 49.999 50 49.999 49.999-22.385 49.999-49.999c0-27.61-22.39-50-50-50zm0 90.62c-22.437 0-40.625-18.188-40.625-40.625s18.188-40.625 40.625-40.625 40.625 18.188 40.625 40.625-18.18 40.62-40.62 40.62zm-6.25-65.62h12.5v12.5h-12.5v-12.5zm18.75 50h-25v-6.25h6.25v-18.75h-6.25v-6.25h18.75v25h6.25v6.25z"/>
	</svg>
	<svg xmlns:xlink="http://www.w3.org/1999/xlink" id="info2" xml:space="preserve" height="100" viewBox="206 206 99.999 99.999" width="100" version="1.1" y="1000" x="0px" enable-background="new 206 206 99.999 99.999">
		<path d="m256 206c-27.614 0-50 22.386-50 50s22.386 49.999 50 49.999 49.999-22.385 49.999-49.999c0-27.61-22.39-50-50-50zm-6.25 18.75h12.5v12.5h-12.5v-12.5zm18.75 62.5h-25v-6.25h6.25v-25h-6.25v-6.25h18.75v31.25h6.25v6.25z"/>
	</svg>
	<svg xmlns:xlink="http://www.w3.org/1999/xlink" id="mail" xml:space="preserve" height="100" viewBox="206 206 99.999 99.999" width="100" version="1.1" y="1100" x="0px" enable-background="new 206 206 99.999 99.999">
		<path d="m289.33 206h-66.662c-9.168 0-16.669 7.499-16.669 16.666v66.665c0 9.167 7.501 16.668 16.669 16.668h66.662c9.173 0 16.668-7.501 16.668-16.668v-66.665c0-9.18-7.5-16.68-16.67-16.68zm-58.33 25h50c0.892 0 1.758 0.191 2.553 0.553l-27.55 32.15-27.553-32.145c0.79-0.37 1.66-0.56 2.55-0.56zm-6.25 43.75v-37.5c0-0.131 0.005-0.261 0.014-0.391l18.326 21.381-18.125 18.125c-0.14-0.52-0.21-1.06-0.21-1.61zm56.25 6.25h-50c-0.552 0-1.094-0.074-1.615-0.216l17.79-17.78 8.83 10.302 8.83-10.3 17.785 17.784c-0.53 0.15-1.07 0.22-1.62 0.22zm6.25-6.25c0 0.552-0.075 1.094-0.216 1.615l-18.125-18.125 18.327-21.381c0.008 0.13 0.014 0.26 0.014 0.391v37.5z"/>
	</svg>
	<svg xmlns:xlink="http://www.w3.org/1999/xlink" id="minus" xml:space="preserve" height="100" viewBox="206.001 206 99.998 100" width="100" version="1.1" y="1200" x="0px" enable-background="new 206.001 206 99.998 100">
		<path d="m206 246.62v18.75c0 1.726 1.399 3.125 3.125 3.125h93.749c1.726 0 3.125-1.399 3.125-3.125v-18.75c0-1.726-1.399-3.125-3.125-3.125h-93.749c-1.73 0-3.13 1.4-3.13 3.12z"/>
	</svg>
	<svg xmlns:xlink="http://www.w3.org/1999/xlink" id="notification" xml:space="preserve" height="100" viewBox="206 206 99.999 99.999" width="100" version="1.1" y="1300" x="0px" enable-background="new 206 206 99.999 99.999">
		<path d="m256 215.38c-10.851 0-21.053 4.226-28.726 11.899s-11.899 17.875-11.899 28.726c0 10.852 4.226 21.053 11.899 28.726s17.875 11.899 28.726 11.899c10.852 0 21.053-4.227 28.726-11.899s11.899-17.874 11.899-28.726c0-10.851-4.227-21.053-11.899-28.726-7.68-7.68-17.88-11.9-28.73-11.9zm0-9.38c27.614 0 49.999 22.386 49.999 50s-22.385 49.999-49.999 49.999-50-22.385-50-49.999c0-27.61 22.39-50 50-50zm-6.25 68.75h12.5v12.5h-12.5v-12.5zm0-50h12.5v37.5h-12.5v-37.5z"/>
	</svg>
	<svg xmlns:xlink="http://www.w3.org/1999/xlink" id="play2" xml:space="preserve" height="100" viewBox="206 206 99.999 99.999" width="100" version="1.1" y="1400" x="0px" enable-background="new 206 206 99.999 99.999">
		<path d="m256 206c-27.614 0-50 22.386-50 50s22.386 49.999 50 49.999 49.999-22.385 49.999-49.999c0-27.61-22.39-50-50-50zm0 90.62c-22.437 0-40.625-18.188-40.625-40.625s18.188-40.625 40.625-40.625 40.625 18.188 40.625 40.625-18.18 40.62-40.62 40.62zm-12.5-62.5l37.5 21.88-37.5 21.875v-43.76z"/>
	</svg>
	<svg xmlns:xlink="http://www.w3.org/1999/xlink" id="play3" xml:space="preserve" height="100" viewBox="206 206 100 100" width="100" version="1.1" y="1500" x="0px" enable-background="new 206 206 100 100">
		<path d="m224.75 218.5l62.5 37.5-62.5 37.5v-75z"/>
	</svg>
	<svg xmlns:xlink="http://www.w3.org/1999/xlink" id="plus" xml:space="preserve" height="100" viewBox="206 206 99.999 99.999" width="100" version="1.1" y="1600" x="0px" enable-background="new 206 206 99.999 99.999">
		<path d="m302.87 243.5h-34.37v-34.375c0-1.726-1.399-3.125-3.125-3.125h-18.75c-1.726 0-3.125 1.399-3.125 3.125v34.38h-34.375c-1.726 0-3.125 1.399-3.125 3.125v18.75c0 1.726 1.399 3.125 3.125 3.125h34.38v34.374c0 1.726 1.399 3.125 3.125 3.125h18.75c1.726 0 3.125-1.399 3.125-3.125v-34.38h34.374c1.726 0 3.125-1.399 3.125-3.125v-18.75c0-1.73-1.4-3.13-3.13-3.13z"/>
	</svg>
	<svg xmlns:xlink="http://www.w3.org/1999/xlink" id="question" xml:space="preserve" height="100" viewBox="206 206 99.999 99.999" width="100" version="1.1" y="1700" x="0px" enable-background="new 206 206 99.999 99.999">
		<path d="m249.75 274.75h12.5v12.5h-12.5v-12.5zm25-43.75c3.451 0 6.25 2.798 6.25 6.25v18.75l-18.75 12.5h-12.5v-6.25l18.75-12.5v-6.25h-31.25v-12.5h37.5zm-18.75-15.62c-10.851 0-21.053 4.226-28.726 11.899s-11.899 17.875-11.899 28.726c0 10.852 4.226 21.053 11.899 28.726s17.875 11.899 28.726 11.899c10.852 0 21.053-4.227 28.726-11.899s11.899-17.874 11.899-28.726c0-10.851-4.227-21.053-11.899-28.726-7.68-7.68-17.88-11.9-28.73-11.9zm0-9.38c27.614 0 49.999 22.386 49.999 50s-22.385 49.999-49.999 49.999-50-22.385-50-49.999c0-27.61 22.39-50 50-50z"/>
	</svg>
	<svg xmlns:xlink="http://www.w3.org/1999/xlink" id="search" xml:space="preserve" height="100" viewBox="206 206 100 99.999" width="100" version="1.1" y="1800" x="0px" enable-background="new 206 206 100 99.999">
		<path d="m220.9 302.9l20.146-23.687c2.204-2.449 3.216-5.067 3.118-7.183 6.549 5.591 15.046 8.969 24.333 8.969 20.711 0 37.5-16.789 37.5-37.5 0-20.71-16.789-37.5-37.5-37.5s-37.5 16.79-37.5 37.5c0 9.287 3.378 17.784 8.97 24.333-2.116-0.098-4.734 0.914-7.183 3.118l-23.687 20.146c-3.833 3.449-4.156 9.084-0.719 12.521s9.07 3.11 12.52-0.72zm22.6-59.4c0-13.807 11.193-25 25-25s25 11.193 25 25-11.193 25-25 25-25-11.19-25-25z"/>
	</svg>
	<svg xmlns:xlink="http://www.w3.org/1999/xlink" id="warning" xml:space="preserve" height="100" viewBox="206 206 99.999 99.999" width="100" version="1.1" y="1900" x="0px" enable-background="new 206 206 99.999 99.999">
		<path d="m256 221.5l-33.68 72h67.35l-33.67-72zm0-15.5c2.155 0 4.311 1.454 5.945 4.36l42.683 85.069c3.271 5.813 0.488 10.569-6.182 10.569h-84.893c-6.67 0-9.452-4.756-6.182-10.569l42.683-85.069c1.64-2.91 3.79-4.36 5.95-4.36zm-6.25 75c0 3.451 2.798 6.25 6.25 6.25s6.25-2.799 6.25-6.25c0-3.452-2.798-6.25-6.25-6.25-3.45 0-6.25 2.8-6.25 6.25zm6.25-37.5c3.451 0 6.25 2.798 6.25 6.25l-1.953 18.75h-8.594l-1.953-18.75c-0.01-3.45 2.79-6.25 6.24-6.25z"/>
	</svg>
	<svg xmlns:xlink="http://www.w3.org/1999/xlink" id="zoom-in" xml:space="preserve" height="100" viewBox="206 206 99.999 99.999" width="100" version="1.1" y="2000" x="0px" enable-background="new 206 206 99.999 99.999">
		<path d="m302.9 291.1l-23.687-20.146c-2.449-2.204-5.067-3.216-7.183-3.118 5.591-6.549 8.969-15.046 8.969-24.333 0-20.71-16.789-37.5-37.5-37.5-20.71 0-37.5 16.789-37.5 37.5s16.789 37.5 37.5 37.5c9.287 0 17.784-3.378 24.333-8.97-0.098 2.116 0.914 4.734 3.118 7.183l20.146 23.687c3.449 3.833 9.084 4.156 12.521 0.719s3.11-9.07-0.72-12.52zm-59.4-22.6c-13.807 0-25-11.193-25-25s11.193-25 25-25 25 11.193 25 25-11.19 25-25 25zm6.25-43.75h-12.5v12.5h-12.5v12.5h12.5v12.5h12.5v-12.5h12.5v-12.5h-12.5v-12.5z"/>
	</svg>
	<svg xmlns:xlink="http://www.w3.org/1999/xlink" id="zoom-out" xml:space="preserve" height="100" viewBox="206 206 99.999 99.999" width="100" version="1.1" y="2100" x="0px" enable-background="new 206 206 99.999 99.999">
		<path d="m302.9 291.1l-23.687-20.146c-2.449-2.204-5.067-3.216-7.183-3.118 5.591-6.549 8.969-15.046 8.969-24.333 0-20.71-16.789-37.5-37.5-37.5-20.71 0-37.5 16.789-37.5 37.5s16.789 37.5 37.5 37.5c9.287 0 17.784-3.378 24.333-8.97-0.098 2.116 0.914 4.734 3.118 7.183l20.146 23.687c3.449 3.833 9.084 4.156 12.521 0.719s3.11-9.07-0.72-12.52zm-59.4-22.6c-13.807 0-25-11.193-25-25s11.193-25 25-25 25 11.193 25 25-11.19 25-25 25zm-18.75-31.25h37.5v12.5h-37.5v-12.5z"/>
	</svg>
</svg>
